<svg xmlns="http://www.w3.org/2000/svg" xmlns:xlink="http://www.w3.org/1999/xlink" width="1080" zoomAndPan="magnify" viewBox="0 0 810 809.999993" height="1080" preserveAspectRatio="xMidYMid meet" version="1.0"><defs><clipPath id="aa5d887a25"><path d="M 544 286 L 693 286 L 693 488 L 544 488 Z M 544 286 " clip-rule="nonzero"/></clipPath><clipPath id="1ac998f50e"><path d="M 249.914062 145.375 L 562.09375 25.230469 L 775.445312 579.589844 L 463.269531 699.738281 Z M 249.914062 145.375 " clip-rule="nonzero"/></clipPath><clipPath id="498f536979"><path d="M 249.914062 145.375 L 562.09375 25.230469 L 775.445312 579.589844 L 463.269531 699.738281 Z M 249.914062 145.375 " clip-rule="nonzero"/></clipPath><clipPath id="48d2f6fcec"><path d="M 249.914062 145.375 L 562.09375 25.230469 L 775.445312 579.589844 L 463.269531 699.738281 Z M 249.914062 145.375 " clip-rule="nonzero"/></clipPath><clipPath id="82862961ce"><path d="M 302 77 L 576 77 L 576 335 L 302 335 Z M 302 77 " clip-rule="nonzero"/></clipPath><clipPath id="391ecc169a"><path d="M 249.914062 145.375 L 562.09375 25.230469 L 775.445312 579.589844 L 463.269531 699.738281 Z M 249.914062 145.375 " clip-rule="nonzero"/></clipPath><clipPath id="6906633f97"><path d="M 249.914062 145.375 L 562.09375 25.230469 L 775.445312 579.589844 L 463.269531 699.738281 Z M 249.914062 145.375 " clip-rule="nonzero"/></clipPath><clipPath id="e95f98b6d1"><path d="M 249.914062 145.375 L 562.09375 25.230469 L 775.445312 579.589844 L 463.269531 699.738281 Z M 249.914062 145.375 " clip-rule="nonzero"/></clipPath><clipPath id="56ef894c67"><path d="M 342 96 L 630 96 L 630 370 L 342 370 Z M 342 96 " clip-rule="nonzero"/></clipPath><clipPath id="3f8f0ad7aa"><path d="M 249.914062 145.375 L 562.09375 25.230469 L 775.445312 579.589844 L 463.269531 699.738281 Z M 249.914062 145.375 " clip-rule="nonzero"/></clipPath><clipPath id="82ffd5d6e4"><path d="M 249.914062 145.375 L 562.09375 25.230469 L 775.445312 579.589844 L 463.269531 699.738281 Z M 249.914062 145.375 " clip-rule="nonzero"/></clipPath><clipPath id="c7653ed4c3"><path d="M 249.914062 145.375 L 562.09375 25.230469 L 775.445312 579.589844 L 463.269531 699.738281 Z M 249.914062 145.375 " clip-rule="nonzero"/></clipPath><clipPath id="87c54a1cae"><path d="M 534 270 L 767 270 L 767 587 L 534 587 Z M 534 270 " clip-rule="nonzero"/></clipPath><clipPath id="4d51666950"><path d="M 249.914062 145.375 L 562.09375 25.230469 L 775.445312 579.589844 L 463.269531 699.738281 Z M 249.914062 145.375 " clip-rule="nonzero"/></clipPath><clipPath id="9488984dea"><path d="M 249.914062 145.375 L 562.09375 25.230469 L 775.445312 579.589844 L 463.269531 699.738281 Z M 249.914062 145.375 " clip-rule="nonzero"/></clipPath><clipPath id="99fbe5cfe8"><path d="M 249.914062 145.375 L 562.09375 25.230469 L 775.445312 579.589844 L 463.269531 699.738281 Z M 249.914062 145.375 " clip-rule="nonzero"/></clipPath><clipPath id="ca609f39ec"><path d="M 61 492.230469 L 245.378906 492.230469 L 245.378906 613.398438 L 61 613.398438 Z M 61 492.230469 " clip-rule="nonzero"/></clipPath><clipPath id="523c4b5b24"><path d="M 259.960938 397.984375 L 228.351562 382.640625 C 222.558594 379.828125 220.117188 372.785156 222.929688 366.988281 C 225.742188 361.195312 232.785156 358.753906 238.582031 361.566406 L 270.1875 376.910156 C 275.984375 379.722656 278.421875 386.765625 275.609375 392.5625 C 272.796875 398.359375 265.753906 400.796875 259.960938 397.984375 Z M 389.453125 407.898438 L 253.722656 342.011719 C 235.953125 333.386719 214.730469 340.085938 206.570312 356.90625 L 64.296875 650.046875 C 56.132812 666.867188 63.992188 687.6875 81.761719 696.3125 L 217.492188 762.203125 C 235.261719 770.828125 256.480469 764.125 264.644531 747.304688 L 406.917969 454.164062 C 415.082031 437.34375 407.222656 416.527344 389.453125 407.898438 Z M 389.453125 407.898438 " clip-rule="nonzero"/></clipPath><clipPath id="f74652d61a"><path d="M 136 657.207031 L 259.824219 657.207031 L 259.824219 766 L 136 766 Z M 136 657.207031 " clip-rule="nonzero"/></clipPath><clipPath id="9924671f1a"><path d="M 259.960938 397.984375 L 228.351562 382.640625 C 222.558594 379.828125 220.117188 372.785156 222.929688 366.988281 C 225.742188 361.195312 232.785156 358.753906 238.582031 361.566406 L 270.1875 376.910156 C 275.984375 379.722656 278.421875 386.765625 275.609375 392.5625 C 272.796875 398.359375 265.753906 400.796875 259.960938 397.984375 Z M 389.453125 407.898438 L 253.722656 342.011719 C 235.953125 333.386719 214.730469 340.085938 206.570312 356.90625 L 64.296875 650.046875 C 56.132812 666.867188 63.992188 687.6875 81.761719 696.3125 L 217.492188 762.203125 C 235.261719 770.828125 256.480469 764.125 264.644531 747.304688 L 406.917969 454.164062 C 415.082031 437.34375 407.222656 416.527344 389.453125 407.898438 Z M 389.453125 407.898438 " clip-rule="nonzero"/></clipPath><clipPath id="6bf1cf09a9"><path d="M 260 488.503906 L 403.347656 488.503906 L 403.347656 676.3125 L 260 676.3125 Z M 260 488.503906 " clip-rule="nonzero"/></clipPath><clipPath id="861833aae7"><path d="M 259.960938 397.984375 L 228.351562 382.640625 C 222.558594 379.828125 220.117188 372.785156 222.929688 366.988281 C 225.742188 361.195312 232.785156 358.753906 238.582031 361.566406 L 270.1875 376.910156 C 275.984375 379.722656 278.421875 386.765625 275.609375 392.5625 C 272.796875 398.359375 265.753906 400.796875 259.960938 397.984375 Z M 389.453125 407.898438 L 253.722656 342.011719 C 235.953125 333.386719 214.730469 340.085938 206.570312 356.90625 L 64.296875 650.046875 C 56.132812 666.867188 63.992188 687.6875 81.761719 696.3125 L 217.492188 762.203125 C 235.261719 770.828125 256.480469 764.125 264.644531 747.304688 L 406.917969 454.164062 C 415.082031 437.34375 407.222656 416.527344 389.453125 407.898438 Z M 389.453125 407.898438 " clip-rule="nonzero"/></clipPath></defs><g clip-path="url(#aa5d887a25)"><g clip-path="url(#1ac998f50e)"><g clip-path="url(#498f536979)"><g clip-path="url(#48d2f6fcec)"><path fill="#603208" d="M 692.585938 482.496094 L 687.066406 487.316406 C 669.238281 466.691406 650.949219 445.347656 635.554688 422.171875 C 633.109375 418.621094 631.605469 414.707031 630.0625 411.171875 C 628.738281 407.726562 627.316406 404.503906 625.425781 401.457031 C 621.546875 395.585938 616.667969 389.917969 611.945312 384.191406 C 608.019531 379.59375 604.09375 374.996094 600.636719 370.21875 C 596.722656 364.71875 592.527344 358.96875 588.398438 353.375 C 573.554688 333.035156 558.378906 312.289062 544.550781 290.847656 L 550.585938 286.90625 C 564.292969 308.039062 579.316406 328.84375 594.097656 349.023438 C 598.289062 354.777344 602.421875 360.371094 606.394531 366.027344 C 609.734375 370.492188 613.660156 375.089844 617.371094 379.589844 C 622.308594 385.410156 627.464844 391.332031 631.464844 397.515625 C 633.753906 401.128906 635.355469 404.824219 636.738281 408.421875 C 638.0625 411.863281 639.546875 415.246094 641.59375 418.230469 C 656.652344 441 674.972656 461.96875 692.585938 482.496094 Z M 692.585938 482.496094 " fill-opacity="1" fill-rule="nonzero"/></g></g></g></g><g clip-path="url(#82862961ce)"><g clip-path="url(#391ecc169a)"><g clip-path="url(#6906633f97)"><g clip-path="url(#e95f98b6d1)"><path fill="#ffaa36" d="M 524.671875 264.902344 C 520.660156 261.957031 515.792969 260.054688 511.082031 258.097656 C 509.132812 257.230469 507.023438 256.425781 505.070312 255.558594 C 494.386719 250.691406 485.785156 243.761719 480.097656 235.53125 C 473.558594 226.011719 471.027344 214.769531 472.910156 204.703125 C 473.945312 199.453125 476.105469 194.3125 478.382812 189.484375 C 478.960938 188.183594 479.636719 186.667969 480.214844 185.367188 C 479.683594 185.390625 479.25 185.199219 478.71875 185.222656 C 469.261719 184.011719 461.417969 178.585938 458.589844 171.234375 C 456.902344 166.851562 457.351562 161.46875 460.027344 157.207031 C 462.195312 153.5 465.496094 151.328125 469.085938 150.84375 C 476.957031 149.792969 483.75 156.699219 485.554688 163.730469 C 487.265625 170.976562 485.203125 178.234375 483.011719 183.75 C 485.503906 183.6875 487.878906 183.316406 489.914062 182.53125 C 497.53125 179.421875 501.289062 170.96875 501.605469 163.839844 C 502.027344 155.59375 498.800781 147.671875 495.679688 140.96875 C 494.863281 139.308594 494.042969 137.648438 493.222656 135.988281 C 490.527344 130.378906 487.765625 124.613281 486.105469 118.425781 C 483.792969 109.617188 484.347656 100.78125 487.53125 93.625 C 491.195312 85.390625 498.472656 79.535156 506.59375 78.207031 C 515.402344 76.792969 524.789062 81.085938 530.078125 88.75 C 535.027344 96.007812 536.109375 105.828125 533 114.570312 L 531.324219 113.957031 C 534.304688 105.804688 533.242188 96.511719 528.691406 89.824219 C 523.800781 82.722656 515.066406 78.71875 506.945312 80.046875 C 499.511719 81.292969 492.640625 86.808594 489.265625 94.394531 C 486.277344 101.117188 485.757812 109.578125 487.890625 117.921875 C 489.429688 123.792969 492.1875 129.558594 494.824219 135.011719 C 495.644531 136.671875 496.464844 138.332031 497.285156 139.992188 C 500.464844 146.855469 503.65625 155.148438 503.351562 163.707031 C 503.0625 171.363281 498.855469 180.527344 490.671875 184.035156 C 488.167969 185 485.480469 185.496094 482.394531 185.425781 C 481.78125 187.097656 480.949219 188.675781 480.273438 190.191406 C 478.152344 194.960938 475.933594 199.945312 474.996094 204.980469 C 473.148438 214.671875 475.652344 225.386719 481.855469 234.496094 C 487.265625 242.472656 495.808594 249.246094 506.058594 253.921875 C 508.011719 254.789062 509.964844 255.652344 512.070312 256.460938 C 516.78125 258.417969 521.710938 260.472656 525.9375 263.519531 Z M 466.75 153.183594 C 464.773438 154.121094 462.882812 155.75 461.605469 158.035156 C 459.277344 161.804688 458.964844 166.597656 460.46875 170.511719 C 463 177.082031 470.347656 182.15625 479.214844 183.234375 C 479.960938 183.308594 480.550781 183.4375 481.238281 183.355469 C 483.398438 178.214844 485.554688 170.734375 483.964844 163.800781 C 482.460938 157.554688 476.496094 151.40625 469.628906 152.253906 C 468.53125 152.675781 467.53125 152.882812 466.75 153.183594 Z M 501.652344 310.230469 C 486.757812 316.859375 472.503906 320.011719 458.203125 319.765625 C 449.324219 319.589844 440.324219 316.765625 432.816406 311.75 C 430.132812 309.910156 427.542969 307.855469 425.167969 305.894531 C 422.242188 303.425781 419.097656 300.863281 415.664062 298.953125 C 413.265625 303.46875 409.191406 307.371094 404.023438 309.359375 C 401.046875 310.507812 398.453125 310.785156 396.09375 310.257812 C 393.140625 309.597656 390.804688 307.261719 390.3125 304.578125 C 389.792969 301.363281 391.792969 298.617188 393.84375 296.929688 C 400.046875 292.027344 408.722656 293.539062 414.699219 296.449219 C 415.085938 295.582031 415.253906 294.617188 415.578125 293.59375 C 416.882812 287.167969 414.230469 280.28125 409.074219 276.695312 C 402.496094 272.222656 393.808594 273.949219 387.628906 277.046875 C 381.605469 280.085938 376.457031 284.9375 372.949219 290.78125 C 370.78125 294.488281 369.261719 298.488281 367.742188 302.484375 C 366.453125 305.675781 365.222656 309.023438 363.71875 312.117188 C 359.910156 319.511719 354.246094 325.824219 347.328125 330.28125 C 341.292969 334.222656 332.0625 336.875 325.988281 331.847656 C 320.6875 327.421875 320.605469 319.726562 322.800781 314.210938 C 324.570312 309.9375 327.453125 306.671875 330.996094 305.128906 C 335.101562 303.191406 339.960938 303.65625 343.164062 306.375 L 342.054688 307.699219 C 339.40625 305.488281 335.355469 305.25 331.96875 306.730469 L 331.8125 306.792969 C 328.585938 308.214844 326.113281 311.140625 324.535156 314.980469 C 322.472656 319.90625 322.785156 326.792969 327.253906 330.460938 C 332.710938 334.828125 340.941406 332.378906 346.570312 328.777344 C 353.328125 324.378906 358.742188 318.34375 362.355469 311.382812 C 363.921875 308.445312 365.152344 305.097656 366.285156 301.96875 C 367.804688 297.96875 369.421875 293.753906 371.589844 290.046875 C 375.191406 283.988281 380.589844 278.855469 386.929688 275.699219 C 393.363281 272.324219 402.957031 270.609375 410.183594 275.371094 C 415.992188 279.246094 418.941406 286.914062 417.410156 294.148438 C 417.144531 295.328125 416.820312 296.351562 416.335938 297.433594 C 419.832031 299.503906 423.191406 302.164062 426.335938 304.726562 C 428.710938 306.6875 431.300781 308.742188 433.988281 310.582031 C 441.214844 315.347656 449.78125 317.976562 458.347656 318.273438 C 481.375 318.753906 504.207031 310.324219 530.453125 291.601562 L 531.585938 293.140625 C 521.171875 300.203125 511.183594 306.023438 501.652344 310.230469 Z M 397.648438 296.542969 C 396.710938 296.90625 395.832031 297.421875 395.011719 298.097656 C 393.371094 299.449219 391.722656 301.699219 392.09375 304.070312 C 392.441406 305.914062 394.226562 307.742188 396.429688 308.332031 C 398.417969 308.824219 400.636719 308.507812 403.140625 307.542969 C 407.839844 305.734375 411.722656 302.265625 413.867188 298.027344 C 409.347656 295.632812 402.855469 294.179688 397.648438 296.542969 Z M 513.515625 278.898438 C 507.488281 279.601562 502.1875 279.84375 497.078125 279.65625 L 497.105469 277.847656 C 502.152344 277.882812 507.453125 277.636719 513.320312 276.996094 Z M 480.523438 277.761719 C 478.164062 277.234375 475.742188 276.550781 473.417969 275.648438 C 470.5 274.613281 467.679688 273.363281 464.957031 271.898438 L 465.789062 270.320312 C 468.511719 271.785156 471.117188 272.941406 474.03125 273.972656 C 476.296875 274.71875 478.5625 275.464844 480.921875 275.992188 Z M 451.40625 262.382812 C 447.648438 259.15625 444.082031 255.5 440.863281 251.347656 C 440.585938 251.097656 440.25 250.6875 440.128906 250.375 L 441.515625 249.300781 C 441.792969 249.554688 441.972656 250.023438 442.25 250.277344 C 445.40625 254.273438 448.972656 257.929688 452.515625 261.058594 Z M 431.15625 236.402344 C 428.445312 231.695312 426.046875 226.871094 423.589844 221.886719 L 425.253906 221.070312 C 427.710938 226.050781 430.109375 230.878906 432.816406 235.582031 Z M 311.988281 260.886719 C 309 258.265625 306.519531 255.089844 304.859375 251.238281 C 304.160156 249.890625 303.714844 248.265625 303.328125 246.796875 L 305.113281 246.289062 C 305.496094 247.757812 306.039062 249.164062 306.738281 250.515625 C 308.339844 254.207031 310.542969 257.132812 313.472656 259.597656 Z M 415.773438 207.652344 C 412.652344 203.285156 409.125 199.253906 404.933594 195.835938 L 406.199219 194.449219 C 410.449219 198.023438 414.195312 202.152344 417.375 206.675781 Z M 304.175781 230.300781 L 302.402344 229.90625 C 302.535156 229.316406 302.667969 228.726562 302.800781 228.136719 C 303.765625 223.632812 305.511719 218.828125 308.070312 214.253906 L 309.648438 215.082031 C 307.25 219.597656 305.597656 224.1875 304.570312 228.53125 C 304.28125 229.183594 304.148438 229.773438 304.175781 230.300781 Z M 391.402344 186.851562 C 386.511719 184.421875 381.488281 182.582031 376.234375 181.550781 L 376.632812 179.78125 C 381.945312 180.96875 387.34375 182.84375 392.234375 185.273438 Z M 318.613281 201.929688 L 317.226562 200.667969 C 320.964844 196.355469 324.878906 192.511719 329.253906 189.390625 L 330.328125 190.777344 C 326.167969 193.992188 322.191406 197.679688 318.613281 201.929688 Z M 360.234375 180.164062 C 358.113281 180.261719 355.835938 180.417969 353.679688 180.890625 C 350.460938 181.410156 347.363281 182.242188 344.484375 183.171875 L 343.824219 181.449219 C 346.859375 180.460938 349.957031 179.628906 353.328125 179.046875 C 355.546875 178.734375 357.765625 178.421875 360.101562 178.417969 Z M 529.964844 260.890625 C 527.21875 256.558594 524.84375 252.261719 522.84375 248 C 522.605469 247.375 522.421875 246.90625 522.183594 246.28125 L 523.90625 245.617188 C 524.148438 246.242188 524.328125 246.710938 524.566406 247.339844 C 526.507812 251.441406 528.722656 255.800781 531.566406 259.914062 Z M 519.222656 230.175781 L 517.378906 230.523438 C 517.089844 228.839844 516.957031 227.09375 516.824219 225.347656 C 516.597656 221.484375 516.898438 217.59375 517.476562 213.960938 L 519.246094 214.355469 C 518.667969 217.992188 518.308594 221.722656 518.632812 225.371094 C 518.859375 226.898438 519.089844 228.429688 519.222656 230.175781 Z M 525.15625 199.328125 L 523.671875 198.28125 C 525.550781 195.222656 527.769531 192.574219 530.324219 190.332031 C 531.808594 189.042969 533.445312 187.695312 535.519531 186.535156 L 536.492188 188.136719 C 534.636719 189.390625 533.097656 190.523438 531.613281 191.8125 C 529 193.894531 526.9375 196.484375 525.15625 199.328125 Z M 550.808594 180.472656 L 549.992188 178.8125 C 553.160156 177.234375 556.679688 175.160156 560.015625 172.617188 C 561.089844 171.664062 562.160156 170.714844 563.234375 169.761719 L 564.617188 171.027344 C 563.605469 172.132812 562.378906 173.144531 561.304688 174.097656 C 557.652344 176.761719 553.917969 178.738281 550.808594 180.472656 Z M 573.378906 156.875 L 571.707031 156.261719 C 572.128906 155.023438 572.550781 153.78125 572.910156 152.386719 C 573.839844 148.253906 574.082031 144.210938 573.382812 140.527344 L 575.226562 140.175781 C 575.984375 144.015625 575.707031 148.433594 574.683594 152.78125 C 574.164062 154.238281 573.742188 155.476562 573.378906 156.875 Z M 564.792969 128.023438 C 561.144531 126.015625 557.191406 125.558594 553.902344 126.824219 L 553.242188 125.105469 C 557 123.65625 561.699219 124.183594 565.625 126.445312 Z M 564.792969 128.023438 " fill-opacity="1" fill-rule="nonzero"/></g></g></g></g><g clip-path="url(#56ef894c67)"><g clip-path="url(#3f8f0ad7aa)"><g clip-path="url(#82ffd5d6e4)"><g clip-path="url(#c7653ed4c3)"><path fill="#ffffff" d="M 613.355469 238.316406 C 610.285156 239.679688 606.875 240.632812 603.476562 240.683594 C 595.679688 240.988281 588.402344 237.5 584.644531 231.941406 C 580.214844 225.5625 581.023438 216.449219 586.382812 211.691406 C 589.191406 209.171875 593.445312 208.074219 597.519531 208.84375 C 601.214844 209.574219 604.179688 211.667969 605.542969 214.738281 L 603.878906 215.558594 C 602.757812 213.113281 600.226562 211.214844 597.121094 210.613281 C 593.636719 209.976562 590.011719 210.835938 587.613281 213.015625 C 582.914062 217.160156 582.273438 225.308594 586.1875 230.808594 C 589.765625 235.898438 596.390625 239.097656 603.5 238.875 C 614.476562 238.425781 624.625 230.207031 627.386719 219.625 C 630.144531 209.039062 624.917969 196.859375 615.328125 191.570312 C 605.679688 186.121094 592.546875 187.042969 576.183594 194.0625 C 572.167969 195.785156 567.746094 197.847656 564.214844 200.820312 C 561.503906 203.121094 558.972656 205.894531 556.140625 210.214844 C 546.03125 225.066406 540.484375 243.367188 540.554688 261.304688 L 538.746094 261.28125 C 538.652344 242.816406 544.296875 224.296875 554.660156 209.171875 C 557.648438 204.785156 560.121094 201.859375 563.144531 199.4375 C 566.988281 196.339844 571.410156 194.28125 575.519531 192.339844 C 592.351562 185.144531 606.078125 184.351562 616.160156 189.992188 C 626.304688 195.789062 631.988281 208.691406 629 220.082031 C 627.082031 228.183594 620.851562 234.894531 613.355469 238.316406 Z M 527.054688 284.644531 L 526.238281 282.984375 C 510.511719 291.191406 492.714844 295.886719 474.96875 296.96875 C 466.171875 297.476562 455.050781 297.085938 447.230469 289.855469 C 440.582031 283.792969 437.210938 275.03125 433.800781 266.640625 C 432.597656 263.511719 431.390625 260.382812 429.875 257.375 C 424.394531 245.472656 416 234.871094 405.792969 226.582031 C 397.410156 219.75 388.890625 215.839844 380.492188 214.582031 C 370.386719 213.082031 360.277344 216.257812 354.140625 222.75 C 349.117188 227.917969 346.71875 234.765625 344.847656 241.59375 C 343.113281 247.832031 341.773438 254.632812 344.4375 260.617188 C 346.976562 266.285156 353.121094 270.566406 360.160156 271.09375 C 365.976562 271.726562 372.484375 269.941406 378.796875 266.253906 C 382.160156 264.242188 384.460938 262.277344 386.210938 259.808594 C 390.152344 254.160156 389.609375 245.746094 384.804688 241.667969 C 382.308594 239.394531 378.394531 238.566406 374.765625 239.421875 C 371.453125 240.15625 368.839844 242.242188 367.742188 245 L 369.414062 245.613281 C 370.320312 243.289062 372.429688 241.757812 375.210938 241.046875 C 378.367188 240.371094 381.476562 240.972656 383.632812 242.835938 C 387.730469 246.46875 388.320312 253.605469 384.824219 258.546875 C 383.328125 260.738281 381.125 262.484375 378.074219 264.375 C 373.992188 266.847656 367.53125 269.691406 360.59375 268.949219 C 354.242188 268.339844 348.496094 264.621094 346.351562 259.519531 C 343.929688 254.164062 345.234375 247.734375 346.875 241.714844 C 348.707031 235.261719 351.007812 228.625 355.78125 223.734375 C 361.566406 217.734375 371.046875 214.804688 380.566406 216.171875 C 388.589844 217.394531 396.734375 221.265625 405 227.785156 C 414.925781 235.824219 423.105469 246.328125 428.464844 257.917969 C 429.765625 260.828125 431.03125 264.117188 432.332031 267.027344 C 435.800781 275.574219 439.292969 284.648438 446.21875 290.964844 C 454.59375 298.699219 466.085938 299.128906 475.195312 298.496094 C 491.039062 297.609375 506.800781 293.699219 521.222656 287.25 C 523.007812 286.742188 525.140625 285.742188 527.054688 284.644531 Z M 395.59375 135.117188 L 394.015625 134.289062 C 392.738281 136.578125 390.964844 138.515625 388.855469 140.046875 L 389.929688 141.429688 C 392.289062 139.621094 394.21875 137.625 395.59375 135.117188 Z M 498.5625 262.015625 C 493.851562 260.058594 489.273438 257.507812 484.855469 254.898438 L 483.867188 256.535156 C 488.347656 259.300781 493.082031 261.792969 497.851562 263.90625 Z M 472.480469 245.648438 C 468.503906 242.328125 464.941406 238.671875 461.46875 234.796875 L 460.144531 236.023438 C 463.613281 239.898438 467.398438 243.652344 471.371094 246.972656 Z M 452.097656 222.59375 C 449.351562 218.261719 446.703125 213.710938 444.425781 209.199219 L 442.703125 209.863281 C 445.039062 214.53125 447.59375 219.296875 450.496094 223.570312 Z M 434.382812 179.832031 L 432.539062 180.179688 C 433.621094 185.332031 435.019531 190.363281 436.730469 195.273438 L 438.453125 194.613281 C 436.800781 189.859375 435.40625 184.828125 434.382812 179.832031 Z M 431.230469 157.152344 C 430.890625 154.40625 430.710938 151.601562 430.375 148.859375 L 428.628906 148.992188 C 428.964844 151.734375 429.144531 154.542969 429.421875 157.128906 C 429.636719 159.5625 429.855469 161.992188 430.070312 164.425781 L 431.816406 164.289062 C 431.820312 161.957031 431.445312 159.582031 431.230469 157.152344 Z M 423.921875 121.339844 C 423.558594 120.402344 423.042969 119.523438 422.523438 118.644531 L 420.859375 119.464844 C 421.378906 120.34375 421.742188 121.28125 422.101562 122.222656 C 423.644531 125.761719 424.992188 129.730469 426.089844 133.980469 L 427.871094 133.472656 C 426.871094 129.007812 425.460938 124.878906 423.921875 121.339844 Z M 374.832031 144.726562 C 371.058594 144.738281 367.457031 143.792969 364.398438 141.914062 C 363.253906 141.277344 362.203125 140.421875 361.097656 139.414062 L 359.832031 140.796875 C 360.9375 141.808594 362.203125 142.757812 363.410156 143.554688 C 366.683594 145.523438 370.660156 146.511719 374.648438 146.59375 Z M 412.816406 106.035156 C 408.9375 102.496094 404.199219 100.007812 399.019531 98.230469 L 398.40625 99.902344 C 403.371094 101.585938 407.886719 103.980469 411.644531 107.203125 Z M 357.316406 112.304688 L 355.835938 111.257812 L 355.738281 111.472656 C 353.125 115.894531 351.988281 121.359375 352.820312 126.789062 L 354.664062 126.4375 C 353.796875 121.382812 354.738281 116.351562 357.316406 112.304688 Z M 383.210938 96.410156 C 377.753906 96.714844 372.5625 98.171875 367.945312 100.667969 L 368.765625 102.328125 C 373.285156 100.050781 378.164062 98.710938 383.40625 98.3125 Z M 521.289062 268.722656 C 518.613281 268.3125 515.878906 267.75 513.300781 267.125 L 512.902344 268.894531 C 515.480469 269.519531 518.214844 270.082031 521.105469 270.585938 Z M 502.71875 337.304688 L 501.238281 336.257812 C 497.609375 341.785156 494.320312 345.386719 490.511719 348.109375 L 491.488281 349.710938 C 495.609375 346.867188 498.996094 343.050781 502.71875 337.304688 Z M 475.585938 352.777344 C 470.4375 352.960938 464.96875 351.832031 460.042969 349.777344 L 459.269531 351.511719 C 464.476562 353.820312 470.257812 354.828125 475.621094 354.742188 Z M 421.0625 362.984375 L 419.578125 361.9375 C 418.433594 363.636719 416.640625 365.042969 414.445312 365.886719 C 411.6875 367.128906 408.625 367.589844 405.890625 367.023438 L 405.492188 368.796875 C 408.601562 369.394531 412.191406 368.910156 415.265625 367.550781 C 417.554688 366.488281 419.601562 364.800781 421.0625 362.984375 Z M 514.566406 318.554688 C 516.566406 315.808594 519.0625 313.410156 521.617188 311.167969 L 520.390625 309.84375 C 517.675781 312.148438 515.242188 314.699219 513.085938 317.507812 C 512.039062 318.988281 510.832031 320.53125 509.589844 322.445312 L 511.074219 323.492188 C 512.472656 321.515625 513.460938 319.878906 514.566406 318.554688 Z M 537.570312 299.820312 C 536.632812 300.179688 535.535156 300.601562 534.597656 300.964844 L 535.257812 302.6875 C 536.199219 302.324219 537.136719 301.960938 538.234375 301.539062 Z M 446.667969 340.734375 C 445.898438 340.132812 445.285156 339.46875 444.511719 338.867188 C 441.1875 335.835938 437.644531 332.707031 433.816406 330.230469 L 432.828125 331.867188 C 436.597656 334.191406 439.984375 337.378906 443.246094 340.253906 C 444.019531 340.855469 444.632812 341.515625 445.402344 342.117188 Z M 408.125 351.792969 C 407.90625 351.699219 407.785156 351.386719 407.726562 351.230469 C 407.242188 349.976562 408.484375 348.0625 409.992188 347.304688 L 410.148438 347.242188 C 412.339844 346.398438 415.074219 346.964844 417.328125 348.609375 L 418.378906 347.128906 C 415.570312 344.976562 412.304688 344.4375 409.484375 345.523438 L 409.328125 345.582031 C 407.039062 346.644531 405.160156 349.703125 406.21875 351.988281 C 406.398438 352.457031 406.796875 353.023438 407.292969 353.371094 Z M 393.988281 357.59375 C 393.867188 357.28125 393.746094 356.96875 393.410156 356.558594 C 392.109375 353.644531 391.59375 350.433594 391.726562 347.507812 C 391.808594 345.859375 392.207031 344.085938 392.882812 342.570312 L 391.207031 341.957031 C 390.652344 343.789062 390.097656 345.617188 390.074219 347.421875 C 389.75 350.78125 390.386719 354.308594 391.964844 357.476562 C 392.085938 357.789062 392.265625 358.257812 392.542969 358.507812 Z M 418.175781 325.109375 C 414.128906 324.871094 410.378906 325.417969 406.875 326.585938 C 405.152344 327.25 403.488281 328.070312 402.042969 328.984375 L 403.019531 330.585938 C 404.464844 329.671875 405.96875 328.910156 407.597656 328.464844 C 410.945312 327.355469 414.539062 326.871094 418.210938 327.074219 Z M 418.175781 325.109375 " fill-opacity="1" fill-rule="nonzero"/></g></g></g></g><g clip-path="url(#87c54a1cae)"><g clip-path="url(#4d51666950)"><g clip-path="url(#9488984dea)"><g clip-path="url(#99fbe5cfe8)"><path fill="#f2b336" d="M 750.84375 546.484375 C 748.324219 548.351562 744.359375 548.800781 742.613281 551.269531 C 744.683594 557.117188 750.273438 560.894531 755.875 563.769531 C 759.683594 565.71875 763.960938 567.484375 765.9375 571.214844 C 767.515625 574.378906 766.898438 578.390625 764.742188 581.195312 C 762.585938 584.003906 759.320312 585.796875 755.789062 586.4375 C 754.789062 586.644531 753.726562 586.691406 752.605469 586.585938 C 751.644531 586.417969 750.835938 586.1875 749.96875 585.804688 C 746.65625 584.203125 744.464844 580.378906 744.667969 576.707031 C 744.851562 574.839844 745.464844 573.164062 745.800781 571.238281 C 746.25 568.191406 745.730469 564.980469 744.273438 562.128906 C 742.972656 559.214844 740.949219 556.757812 738.828125 554.523438 C 738.550781 554.269531 738.273438 554.015625 737.960938 554.136719 C 737.804688 554.199219 737.648438 554.257812 737.550781 554.472656 C 733.164062 558.496094 727.34375 560.199219 721.527344 559.5625 C 722.9375 559.023438 724.382812 558.105469 725.394531 556.996094 C 725.898438 556.445312 726.503906 555.671875 726.949219 554.960938 C 728.441406 552.769531 729.601562 550.167969 730.972656 547.664062 C 732 545.652344 731.660156 542.910156 730.253906 541.117188 C 729.976562 540.863281 729.855469 540.550781 729.480469 540.515625 C 729.109375 540.476562 728.792969 540.597656 728.480469 540.71875 C 727.289062 541.359375 726 542.214844 724.566406 542.226562 C 722.601562 542.265625 720.976562 540.375 721.15625 538.507812 C 721.203125 537.234375 722.058594 536.183594 722.324219 535.003906 C 722.589844 533.824219 722.300781 532.140625 721.121094 531.875 C 720.15625 531.707031 719.085938 532.660156 717.964844 532.550781 C 717.058594 532.539062 716.386719 531.722656 716.179688 530.722656 C 715.878906 529.941406 716.050781 528.976562 715.90625 528.132812 C 715.894531 526.703125 715.566406 525.390625 715.027344 523.980469 C 714.664062 523.042969 713.90625 521.539062 712.964844 521.902344 C 712.363281 522.671875 711.363281 522.875 710.554688 522.648438 C 709.75 522.421875 708.976562 521.820312 708.675781 521.035156 C 708.375 520.253906 708.605469 519.445312 708.675781 518.699219 C 708.75 517.953125 708.386719 517.015625 707.738281 516.726562 C 707.027344 516.28125 706.148438 516.800781 705.363281 517.101562 C 704.015625 517.800781 702.449219 518.402344 700.988281 517.886719 C 699.53125 517.371094 698.617188 515.925781 698.292969 514.613281 C 697.605469 512.363281 697.386719 509.929688 697.230469 507.65625 C 696.714844 502.105469 695.078125 496.449219 691.488281 492.261719 C 690.8125 491.445312 690.355469 490.722656 689.835938 489.84375 C 689.777344 489.6875 689.714844 489.53125 689.714844 489.53125 C 688.113281 490.507812 686.453125 491.324219 684.789062 492.144531 C 682.75 492.929688 680.523438 494.148438 678.355469 493.183594 C 676.558594 492.257812 675.621094 490.285156 676.546875 488.492188 C 679.089844 482.480469 686.128906 478.335938 691.40625 475.226562 C 692.597656 474.589844 693.949219 473.890625 695.261719 473.5625 C 696.636719 473.394531 698.128906 473.539062 699.238281 474.546875 C 700.347656 475.558594 700.636719 477.246094 700.117188 478.703125 C 699.753906 480.097656 698.863281 481.519531 697.851562 482.628906 C 696.839844 483.734375 695.828125 484.84375 694.753906 485.796875 C 697.34375 487.851562 699.414062 491.367188 701.691406 493.542969 C 703.257812 495.277344 705.175781 496.515625 707.246094 497.695312 C 707.523438 497.945312 707.898438 497.984375 708.332031 498.175781 C 710.933594 499.328125 713.824219 499.832031 716.175781 501.265625 C 717.535156 501.996094 718.765625 503.320312 719.148438 504.789062 C 719.535156 506.257812 719.039062 508.246094 717.535156 509.003906 C 717.0625 509.183594 716.4375 509.425781 715.96875 509.605469 C 715.558594 509.945312 715.050781 510.5 715.234375 510.96875 C 715.351562 511.28125 715.414062 511.4375 715.691406 511.691406 C 716.859375 512.855469 718.941406 513.132812 720.113281 514.300781 C 720.785156 515.117188 721.050781 516.273438 720.230469 516.949219 C 719.980469 517.226562 719.507812 517.40625 719.253906 517.683594 C 719.0625 518.117188 719.304688 518.742188 719.640625 519.152344 C 721.605469 521.449219 724.832031 522.363281 727.207031 524.324219 C 727.761719 524.828125 728.496094 525.804688 727.988281 526.359375 C 727.738281 526.636719 727.578125 526.695312 727.265625 526.816406 C 726.699219 527.214844 726.472656 528.019531 726.773438 528.800781 C 727.589844 530.464844 731.472656 529.328125 732.964844 529.472656 C 734.398438 529.460938 735.953125 529.761719 736.90625 530.832031 C 738.132812 532.15625 737.917969 534.394531 736.53125 535.464844 C 735.554688 536.199219 733.988281 536.804688 734.097656 538.019531 C 734.058594 538.394531 734.242188 538.863281 734.519531 539.113281 C 736.6875 542.414062 740.804688 544.238281 744.675781 544.007812 C 748.542969 543.777344 752.375 541.585938 755.277344 538.851562 C 755.253906 540.65625 754.324219 542.449219 753.121094 543.992188 C 752.421875 544.980469 751.664062 545.808594 750.84375 546.484375 Z M 541.527344 272.25 C 540.554688 270.648438 538.566406 270.15625 536.84375 270.820312 C 536.683594 270.878906 536.527344 270.9375 536.527344 270.9375 C 534.769531 271.976562 534.179688 274.179688 535.214844 275.9375 C 538.203125 280.894531 541.1875 285.851562 544.488281 290.691406 L 550.527344 286.75 C 547.441406 282.007812 544.457031 277.050781 541.527344 272.25 Z M 541.527344 272.25 " fill-opacity="1" fill-rule="nonzero"/></g></g></g></g><path fill="#ff9b54" d="M 259.960938 397.984375 L 228.351562 382.640625 C 222.558594 379.828125 220.117188 372.785156 222.929688 366.988281 C 225.742188 361.195312 232.785156 358.753906 238.582031 361.566406 L 270.1875 376.910156 C 275.984375 379.722656 278.421875 386.765625 275.609375 392.5625 C 272.796875 398.359375 265.753906 400.796875 259.960938 397.984375 Z M 394.320312 397.871094 L 258.589844 331.980469 C 240.820312 323.355469 219.222656 330.835938 210.597656 348.609375 L 60.265625 658.347656 C 51.640625 676.121094 59.121094 697.71875 76.894531 706.34375 L 212.625 772.234375 C 230.394531 780.859375 251.992188 773.375 260.613281 755.605469 L 410.945312 445.867188 C 419.570312 428.09375 412.089844 406.496094 394.320312 397.871094 " fill-opacity="1" fill-rule="nonzero"/><path fill="#221817" d="M 259.960938 397.984375 L 228.351562 382.640625 C 222.558594 379.828125 220.117188 372.785156 222.929688 366.988281 C 225.742188 361.195312 232.785156 358.753906 238.582031 361.566406 L 270.1875 376.910156 C 275.984375 379.722656 278.421875 386.765625 275.609375 392.5625 C 272.796875 398.359375 265.753906 400.796875 259.960938 397.984375 Z M 389.453125 407.898438 L 253.722656 342.011719 C 235.953125 333.386719 214.730469 340.085938 206.570312 356.90625 L 64.296875 650.046875 C 56.132812 666.867188 63.992188 687.6875 81.761719 696.3125 L 217.492188 762.203125 C 235.261719 770.828125 256.480469 764.125 264.644531 747.304688 L 406.917969 454.164062 C 415.082031 437.34375 407.222656 416.527344 389.453125 407.898438 " fill-opacity="1" fill-rule="nonzero"/><g clip-path="url(#ca609f39ec)"><g clip-path="url(#523c4b5b24)"><path fill="#ffffff" d="M 137.402344 562.34375 C 129.992188 558.429688 137.875 555.101562 137.875 555.101562 C 137.875 555.101562 156.019531 546.972656 163.914062 558.957031 C 171.808594 570.9375 144.816406 566.261719 137.402344 562.34375 Z M 127.414062 527.449219 C 127.414062 527.449219 118.867188 535.0625 113.808594 534.515625 C 108.746094 533.964844 119.371094 517.027344 130.964844 514.390625 C 142.5625 511.75 127.414062 527.449219 127.414062 527.449219 Z M 200.003906 564.804688 C 193.4375 561.4375 184.558594 555.472656 186.753906 548.644531 C 189.230469 540.9375 206.332031 544.605469 215.414062 547.160156 C 218.675781 548.078125 222.515625 546.6875 224.320312 543.941406 L 245.089844 512.34375 L 200.101562 497.71875 C 196.757812 496.632812 192.699219 497.8125 190.4375 500.503906 C 184.085938 508.0625 171.035156 521.769531 162.089844 518.761719 C 152.15625 515.417969 166.707031 499.933594 172.492188 494.269531 C 173.332031 493.445312 172.746094 492.277344 171.519531 492.335938 L 130.457031 494.292969 C 129.875 494.320312 129.332031 494.636719 129.078125 495.101562 C 126.574219 499.671875 113.078125 523.113281 102.683594 517.324219 C 94.277344 512.636719 100.691406 503.621094 104.746094 499.113281 C 105.25 498.554688 104.550781 497.902344 103.847656 498.277344 C 90.914062 505.1875 46.945312 529.835938 42.949219 547.785156 C 38.253906 568.847656 48.800781 586.988281 48.800781 586.988281 C 66.789062 616.789062 122.648438 614.09375 143.71875 611.917969 C 146.671875 611.609375 148.105469 608.488281 145.992188 606.96875 C 138.570312 601.628906 127.359375 592.015625 132.5625 585.765625 C 138.359375 578.796875 153.785156 591.953125 160.570312 598.367188 C 162.703125 600.382812 166.414062 600.65625 169.425781 599.046875 C 181.265625 592.722656 194.082031 580.589844 201.117188 573.421875 C 203.929688 570.554688 203.402344 566.550781 200.003906 564.804688 " fill-opacity="1" fill-rule="nonzero"/></g></g><g clip-path="url(#f74652d61a)"><g clip-path="url(#9924671f1a)"><path fill="#ffffff" d="M 214.359375 736.214844 C 213.992188 733.898438 215.675781 731.097656 218.195312 729.535156 C 222.175781 727.070312 228.964844 723.523438 231.882812 725.894531 C 235.609375 728.917969 215.542969 743.65625 214.359375 736.214844 Z M 180.617188 759.03125 C 175.964844 755.355469 169.730469 740.089844 180.460938 737.890625 C 191.191406 735.6875 190.4375 754.871094 190.4375 754.871094 C 190.4375 754.871094 185.273438 762.710938 180.617188 759.03125 Z M 206.304688 693.726562 C 211.761719 688.621094 211.21875 710.433594 211.21875 710.433594 C 202.085938 726.4375 200.847656 698.832031 206.304688 693.726562 Z M 247.984375 657.628906 C 247.984375 657.628906 182.578125 679.714844 157.722656 703.355469 C 132.867188 727 126.769531 765.097656 153.558594 773.902344 C 180.347656 782.703125 186.828125 778.269531 186.828125 778.269531 C 186.828125 778.269531 207.132812 789.355469 242.226562 776.949219 C 277.320312 764.539062 247.984375 657.628906 247.984375 657.628906 " fill-opacity="1" fill-rule="nonzero"/></g></g><g clip-path="url(#6bf1cf09a9)"><g clip-path="url(#861833aae7)"><path fill="#ffffff" d="M 375.011719 654.613281 C 375.011719 654.613281 339.082031 681.640625 310.484375 675.152344 C 281.890625 668.660156 260.023438 645.128906 260.023438 645.128906 L 267.078125 616.15625 C 267.078125 616.15625 308.152344 639.261719 306.804688 612.339844 C 305.457031 585.421875 267.324219 595.40625 267.324219 595.40625 C 267.324219 595.40625 257.265625 572.546875 267.351562 556.917969 C 267.351562 556.917969 294.960938 581.785156 302.519531 566.007812 C 310.078125 550.234375 272.78125 532.914062 272.78125 532.914062 C 272.78125 532.914062 280.542969 498.140625 288.746094 491.144531 C 296.949219 484.152344 318.65625 495.007812 319.25 502.132812 C 319.84375 509.257812 319.257812 556.832031 327.691406 557.3125 C 336.125 557.792969 338.175781 506.25 338.175781 506.25 C 338.175781 506.25 352.484375 504.535156 361.851562 512.664062 C 361.851562 512.664062 342.621094 565.253906 352.179688 574.914062 C 361.738281 584.574219 378.9375 523.671875 378.9375 523.671875 C 378.9375 523.671875 389.835938 526.917969 399.582031 538.109375 C 399.582031 538.109375 416.8125 600.53125 375.011719 654.613281 " fill-opacity="1" fill-rule="nonzero"/></g></g></svg>