<svg xmlns="http://www.w3.org/2000/svg" xmlns:xlink="http://www.w3.org/1999/xlink" width="1080" zoomAndPan="magnify" viewBox="0 0 810 809.999993" height="1080" preserveAspectRatio="xMidYMid meet" version="1.0"><defs><clipPath id="3b17549026"><path d="M 560 262 L 682 262 L 682 427 L 560 427 Z M 560 262 " clip-rule="nonzero"/></clipPath><clipPath id="6e695df684"><path d="M 319.082031 146.3125 L 574.5625 47.984375 L 749.125 501.554688 L 493.640625 599.878906 Z M 319.082031 146.3125 " clip-rule="nonzero"/></clipPath><clipPath id="a6db9b072e"><path d="M 319.082031 146.3125 L 574.5625 47.984375 L 749.125 501.554688 L 493.640625 599.878906 Z M 319.082031 146.3125 " clip-rule="nonzero"/></clipPath><clipPath id="9db675fdc7"><path d="M 319.082031 146.3125 L 574.5625 47.984375 L 749.125 501.554688 L 493.640625 599.878906 Z M 319.082031 146.3125 " clip-rule="nonzero"/></clipPath><clipPath id="2ed0a169c3"><path d="M 362 91 L 586 91 L 586 302 L 362 302 Z M 362 91 " clip-rule="nonzero"/></clipPath><clipPath id="c4f704fa91"><path d="M 319.082031 146.3125 L 574.5625 47.984375 L 749.125 501.554688 L 493.640625 599.878906 Z M 319.082031 146.3125 " clip-rule="nonzero"/></clipPath><clipPath id="4c5422fdda"><path d="M 319.082031 146.3125 L 574.5625 47.984375 L 749.125 501.554688 L 493.640625 599.878906 Z M 319.082031 146.3125 " clip-rule="nonzero"/></clipPath><clipPath id="0704ecb44e"><path d="M 319.082031 146.3125 L 574.5625 47.984375 L 749.125 501.554688 L 493.640625 599.878906 Z M 319.082031 146.3125 " clip-rule="nonzero"/></clipPath><clipPath id="6386faa1ee"><path d="M 395 106 L 630 106 L 630 330 L 395 330 Z M 395 106 " clip-rule="nonzero"/></clipPath><clipPath id="bd856b8343"><path d="M 319.082031 146.3125 L 574.5625 47.984375 L 749.125 501.554688 L 493.640625 599.878906 Z M 319.082031 146.3125 " clip-rule="nonzero"/></clipPath><clipPath id="0298be71a8"><path d="M 319.082031 146.3125 L 574.5625 47.984375 L 749.125 501.554688 L 493.640625 599.878906 Z M 319.082031 146.3125 " clip-rule="nonzero"/></clipPath><clipPath id="297388b45e"><path d="M 319.082031 146.3125 L 574.5625 47.984375 L 749.125 501.554688 L 493.640625 599.878906 Z M 319.082031 146.3125 " clip-rule="nonzero"/></clipPath><clipPath id="b9f7846f08"><path d="M 552 248 L 743 248 L 743 508 L 552 508 Z M 552 248 " clip-rule="nonzero"/></clipPath><clipPath id="83d59cb628"><path d="M 319.082031 146.3125 L 574.5625 47.984375 L 749.125 501.554688 L 493.640625 599.878906 Z M 319.082031 146.3125 " clip-rule="nonzero"/></clipPath><clipPath id="0a0d384b7a"><path d="M 319.082031 146.3125 L 574.5625 47.984375 L 749.125 501.554688 L 493.640625 599.878906 Z M 319.082031 146.3125 " clip-rule="nonzero"/></clipPath><clipPath id="cdf95e091b"><path d="M 319.082031 146.3125 L 574.5625 47.984375 L 749.125 501.554688 L 493.640625 599.878906 Z M 319.082031 146.3125 " clip-rule="nonzero"/></clipPath><clipPath id="ea7651937c"><path d="M 90.382812 481.683594 L 274.910156 481.683594 L 274.910156 602.851562 L 90.382812 602.851562 Z M 90.382812 481.683594 " clip-rule="nonzero"/></clipPath><clipPath id="c184c05698"><path d="M 289.492188 387.4375 L 257.882812 372.09375 C 252.089844 369.28125 249.648438 362.238281 252.460938 356.441406 C 255.273438 350.648438 262.316406 348.207031 268.113281 351.019531 L 299.71875 366.363281 C 305.515625 369.175781 307.953125 376.21875 305.140625 382.015625 C 302.328125 387.8125 295.285156 390.25 289.492188 387.4375 Z M 418.984375 397.351562 L 283.253906 331.464844 C 265.484375 322.839844 244.261719 329.539062 236.101562 346.359375 L 93.828125 639.5 C 85.664062 656.320312 93.523438 677.140625 111.292969 685.765625 L 247.023438 751.65625 C 264.792969 760.28125 286.011719 753.578125 294.175781 736.757812 L 436.449219 443.617188 C 444.613281 426.796875 436.753906 405.980469 418.984375 397.351562 Z M 418.984375 397.351562 " clip-rule="nonzero"/></clipPath><clipPath id="a2ba39acf9"><path d="M 165.40625 647 L 289 647 L 289 755.710938 L 165.40625 755.710938 Z M 165.40625 647 " clip-rule="nonzero"/></clipPath><clipPath id="629c7e8345"><path d="M 289.492188 387.4375 L 257.882812 372.09375 C 252.089844 369.28125 249.648438 362.238281 252.460938 356.441406 C 255.273438 350.648438 262.316406 348.207031 268.113281 351.019531 L 299.71875 366.363281 C 305.515625 369.175781 307.953125 376.21875 305.140625 382.015625 C 302.328125 387.8125 295.285156 390.25 289.492188 387.4375 Z M 418.984375 397.351562 L 283.253906 331.464844 C 265.484375 322.839844 244.261719 329.539062 236.101562 346.359375 L 93.828125 639.5 C 85.664062 656.320312 93.523438 677.140625 111.292969 685.765625 L 247.023438 751.65625 C 264.792969 760.28125 286.011719 753.578125 294.175781 736.757812 L 436.449219 443.617188 C 444.613281 426.796875 436.753906 405.980469 418.984375 397.351562 Z M 418.984375 397.351562 " clip-rule="nonzero"/></clipPath><clipPath id="4088fd0e2b"><path d="M 289.355469 478 L 432.878906 478 L 432.878906 665.765625 L 289.355469 665.765625 Z M 289.355469 478 " clip-rule="nonzero"/></clipPath><clipPath id="ff979844d9"><path d="M 289.492188 387.4375 L 257.882812 372.09375 C 252.089844 369.28125 249.648438 362.238281 252.460938 356.441406 C 255.273438 350.648438 262.316406 348.207031 268.113281 351.019531 L 299.71875 366.363281 C 305.515625 369.175781 307.953125 376.21875 305.140625 382.015625 C 302.328125 387.8125 295.285156 390.25 289.492188 387.4375 Z M 418.984375 397.351562 L 283.253906 331.464844 C 265.484375 322.839844 244.261719 329.539062 236.101562 346.359375 L 93.828125 639.5 C 85.664062 656.320312 93.523438 677.140625 111.292969 685.765625 L 247.023438 751.65625 C 264.792969 760.28125 286.011719 753.578125 294.175781 736.757812 L 436.449219 443.617188 C 444.613281 426.796875 436.753906 405.980469 418.984375 397.351562 Z M 418.984375 397.351562 " clip-rule="nonzero"/></clipPath></defs><g clip-path="url(#3b17549026)"><g clip-path="url(#6e695df684)"><g clip-path="url(#a6db9b072e)"><g clip-path="url(#9db675fdc7)"><path fill="#603208" d="M 681.320312 422.117188 L 676.800781 426.0625 C 662.214844 409.1875 647.25 391.722656 634.652344 372.761719 C 632.652344 369.855469 631.421875 366.65625 630.160156 363.761719 C 629.074219 360.945312 627.914062 358.304688 626.367188 355.8125 C 623.191406 351.007812 619.199219 346.371094 615.335938 341.6875 C 612.121094 337.925781 608.910156 334.164062 606.078125 330.257812 C 602.875 325.757812 599.445312 321.050781 596.066406 316.472656 C 583.921875 299.835938 571.5 282.863281 560.1875 265.316406 L 565.128906 262.09375 C 576.34375 279.382812 588.636719 296.40625 600.730469 312.914062 C 604.160156 317.621094 607.539062 322.199219 610.792969 326.828125 C 613.523438 330.480469 616.738281 334.238281 619.773438 337.921875 C 623.816406 342.6875 628.035156 347.53125 631.304688 352.589844 C 633.179688 355.542969 634.488281 358.566406 635.621094 361.511719 C 636.707031 364.328125 637.917969 367.09375 639.59375 369.535156 C 651.914062 388.164062 666.90625 405.324219 681.320312 422.117188 Z M 681.320312 422.117188 " fill-opacity="1" fill-rule="nonzero"/></g></g></g></g><g clip-path="url(#2ed0a169c3)"><g clip-path="url(#c4f704fa91)"><g clip-path="url(#4c5422fdda)"><g clip-path="url(#0704ecb44e)"><path fill="#ffaa36" d="M 543.921875 244.089844 C 540.640625 241.679688 536.65625 240.125 532.800781 238.523438 C 531.203125 237.816406 529.480469 237.15625 527.882812 236.449219 C 519.136719 232.464844 512.097656 226.796875 507.445312 220.0625 C 502.09375 212.273438 500.027344 203.074219 501.566406 194.839844 C 502.414062 190.542969 504.179688 186.335938 506.046875 182.386719 C 506.519531 181.320312 507.070312 180.082031 507.546875 179.015625 C 507.109375 179.035156 506.757812 178.878906 506.324219 178.898438 C 498.582031 177.910156 492.164062 173.472656 489.847656 167.453125 C 488.46875 163.871094 488.835938 159.464844 491.023438 155.976562 C 492.800781 152.941406 495.503906 151.167969 498.441406 150.773438 C 504.878906 149.910156 510.441406 155.5625 511.917969 161.3125 C 513.316406 167.242188 511.628906 173.183594 509.832031 177.695312 C 511.875 177.644531 513.816406 177.335938 515.484375 176.695312 C 521.714844 174.152344 524.792969 167.234375 525.050781 161.402344 C 525.398438 154.65625 522.757812 148.175781 520.203125 142.691406 C 519.535156 141.332031 518.863281 139.972656 518.195312 138.613281 C 515.988281 134.023438 513.730469 129.308594 512.371094 124.246094 C 510.480469 117.039062 510.933594 109.808594 513.539062 103.953125 C 516.539062 97.214844 522.496094 92.421875 529.140625 91.335938 C 536.347656 90.179688 544.027344 93.691406 548.355469 99.960938 C 552.40625 105.898438 553.292969 113.933594 550.746094 121.089844 L 549.375 120.585938 C 551.8125 113.917969 550.949219 106.3125 547.222656 100.839844 C 543.21875 95.03125 536.070312 91.753906 529.425781 92.84375 C 523.34375 93.859375 517.722656 98.375 514.957031 104.582031 C 512.511719 110.082031 512.085938 117.007812 513.828125 123.832031 C 515.089844 128.636719 517.347656 133.355469 519.503906 137.816406 C 520.175781 139.171875 520.847656 140.53125 521.515625 141.890625 C 524.117188 147.503906 526.730469 154.289062 526.480469 161.292969 C 526.242188 167.558594 522.800781 175.054688 516.105469 177.925781 C 514.054688 178.714844 511.855469 179.121094 509.328125 179.0625 C 508.828125 180.433594 508.144531 181.722656 507.59375 182.964844 C 505.855469 186.867188 504.042969 190.945312 503.273438 195.066406 C 501.761719 202.996094 503.808594 211.761719 508.886719 219.214844 C 513.3125 225.742188 520.300781 231.28125 528.691406 235.109375 C 530.289062 235.816406 531.886719 236.523438 533.609375 237.183594 C 537.464844 238.785156 541.5 240.46875 544.957031 242.957031 Z M 496.527344 152.683594 C 494.910156 153.453125 493.363281 154.785156 492.316406 156.65625 C 490.414062 159.742188 490.15625 163.660156 491.386719 166.863281 C 493.457031 172.238281 499.46875 176.390625 506.726562 177.273438 C 507.339844 177.332031 507.820312 177.441406 508.382812 177.371094 C 510.148438 173.164062 511.914062 167.046875 510.617188 161.371094 C 509.382812 156.261719 504.503906 151.230469 498.882812 151.925781 C 497.988281 152.269531 497.167969 152.4375 496.527344 152.683594 Z M 525.082031 281.179688 C 512.890625 286.605469 501.226562 289.183594 489.523438 288.984375 C 482.257812 288.84375 474.890625 286.53125 468.75 282.429688 C 466.550781 280.921875 464.429688 279.242188 462.488281 277.636719 C 460.09375 275.617188 457.519531 273.523438 454.710938 271.957031 C 452.75 275.652344 449.414062 278.847656 445.183594 280.476562 C 442.75 281.414062 440.628906 281.640625 438.695312 281.207031 C 436.28125 280.667969 434.367188 278.757812 433.964844 276.5625 C 433.542969 273.933594 435.179688 271.683594 436.855469 270.304688 C 441.933594 266.292969 449.03125 267.527344 453.921875 269.910156 C 454.238281 269.199219 454.378906 268.410156 454.644531 267.574219 C 455.710938 262.3125 453.542969 256.679688 449.324219 253.75 C 443.941406 250.089844 436.828125 251.5 431.769531 254.035156 C 426.839844 256.523438 422.628906 260.496094 419.757812 265.273438 C 417.984375 268.308594 416.738281 271.578125 415.496094 274.851562 C 414.441406 277.460938 413.433594 280.199219 412.203125 282.734375 C 409.085938 288.78125 404.449219 293.949219 398.789062 297.597656 C 393.847656 300.820312 386.292969 302.992188 381.324219 298.878906 C 376.988281 295.257812 376.921875 288.960938 378.714844 284.449219 C 380.167969 280.953125 382.523438 278.28125 385.421875 277.019531 C 388.785156 275.429688 392.757812 275.8125 395.382812 278.035156 L 394.472656 279.121094 C 392.304688 277.308594 388.992188 277.113281 386.222656 278.328125 L 386.09375 278.378906 C 383.449219 279.542969 381.429688 281.9375 380.136719 285.078125 C 378.449219 289.109375 378.703125 294.742188 382.359375 297.746094 C 386.828125 301.316406 393.5625 299.3125 398.167969 296.363281 C 403.699219 292.765625 408.128906 287.828125 411.085938 282.132812 C 412.371094 279.730469 413.375 276.988281 414.304688 274.429688 C 415.546875 271.15625 416.871094 267.707031 418.644531 264.671875 C 421.59375 259.714844 426.011719 255.519531 431.199219 252.933594 C 436.464844 250.171875 444.316406 248.769531 450.230469 252.664062 C 454.980469 255.832031 457.394531 262.105469 456.140625 268.027344 C 455.925781 268.992188 455.660156 269.828125 455.265625 270.714844 C 458.121094 272.410156 460.875 274.582031 463.445312 276.679688 C 465.386719 278.285156 467.507812 279.96875 469.707031 281.472656 C 475.621094 285.371094 482.632812 287.523438 489.640625 287.761719 C 508.484375 288.15625 527.171875 281.257812 548.648438 265.933594 L 549.578125 267.195312 C 541.054688 272.972656 532.882812 277.738281 525.082031 281.179688 Z M 439.972656 269.988281 C 439.203125 270.285156 438.480469 270.707031 437.8125 271.261719 C 436.46875 272.363281 435.117188 274.207031 435.425781 276.148438 C 435.710938 277.652344 437.167969 279.152344 438.972656 279.632812 C 440.597656 280.035156 442.414062 279.777344 444.464844 278.988281 C 448.3125 277.507812 451.488281 274.667969 453.242188 271.199219 C 449.546875 269.242188 444.230469 268.054688 439.972656 269.988281 Z M 534.789062 255.542969 C 529.859375 256.117188 525.519531 256.316406 521.339844 256.164062 L 521.359375 254.683594 C 525.492188 254.710938 529.832031 254.511719 534.632812 253.988281 Z M 507.792969 254.617188 C 505.859375 254.183594 503.878906 253.625 501.976562 252.886719 C 499.589844 252.039062 497.28125 251.015625 495.054688 249.816406 L 495.734375 248.527344 C 497.964844 249.726562 500.09375 250.671875 502.480469 251.515625 C 504.332031 252.125 506.1875 252.734375 508.117188 253.167969 Z M 483.964844 242.035156 C 480.886719 239.394531 477.96875 236.402344 475.339844 233.007812 C 475.113281 232.800781 474.835938 232.464844 474.738281 232.210938 L 475.871094 231.332031 C 476.097656 231.539062 476.246094 231.921875 476.472656 232.128906 C 479.054688 235.398438 481.972656 238.390625 484.871094 240.949219 Z M 467.394531 220.777344 C 465.175781 216.929688 463.214844 212.980469 461.203125 208.902344 L 462.566406 208.230469 C 464.578125 212.308594 466.539062 216.257812 468.753906 220.105469 Z M 369.871094 240.820312 C 367.429688 238.675781 365.398438 236.074219 364.039062 232.925781 C 363.464844 231.820312 363.101562 230.492188 362.785156 229.289062 L 364.246094 228.875 C 364.558594 230.078125 365.003906 231.230469 365.574219 232.332031 C 366.886719 235.355469 368.691406 237.746094 371.085938 239.765625 Z M 454.808594 197.253906 C 452.253906 193.679688 449.367188 190.382812 445.9375 187.585938 L 446.972656 186.453125 C 450.453125 189.378906 453.519531 192.753906 456.121094 196.457031 Z M 363.480469 215.792969 L 362.03125 215.472656 C 362.136719 214.988281 362.246094 214.503906 362.355469 214.023438 C 363.144531 210.339844 364.578125 206.40625 366.667969 202.664062 L 367.960938 203.339844 C 365.996094 207.035156 364.644531 210.789062 363.804688 214.347656 C 363.570312 214.878906 363.460938 215.363281 363.480469 215.792969 Z M 434.867188 180.238281 C 430.863281 178.25 426.75 176.746094 422.453125 175.902344 L 422.777344 174.453125 C 427.125 175.425781 431.542969 176.960938 435.546875 178.945312 Z M 375.296875 192.578125 L 374.164062 191.546875 C 377.222656 188.019531 380.425781 184.875 384.007812 182.320312 L 384.882812 183.453125 C 381.480469 186.085938 378.226562 189.101562 375.296875 192.578125 Z M 409.359375 174.769531 C 407.625 174.847656 405.761719 174.976562 403.996094 175.363281 C 401.363281 175.789062 398.828125 176.46875 396.472656 177.230469 L 395.929688 175.820312 C 398.414062 175.011719 400.949219 174.332031 403.710938 173.855469 C 405.523438 173.597656 407.335938 173.339844 409.25 173.339844 Z M 548.253906 240.808594 C 546.003906 237.261719 544.0625 233.75 542.425781 230.261719 C 542.230469 229.75 542.082031 229.367188 541.886719 228.855469 L 543.296875 228.3125 C 543.492188 228.824219 543.640625 229.207031 543.835938 229.71875 C 545.425781 233.078125 547.238281 236.640625 549.5625 240.007812 Z M 539.464844 215.675781 L 537.953125 215.964844 C 537.71875 214.585938 537.609375 213.15625 537.5 211.726562 C 537.316406 208.566406 537.5625 205.382812 538.035156 202.410156 L 539.484375 202.734375 C 539.011719 205.707031 538.714844 208.761719 538.980469 211.746094 C 539.167969 212.996094 539.355469 214.25 539.464844 215.675781 Z M 544.320312 190.4375 L 543.109375 189.582031 C 544.648438 187.078125 546.460938 184.910156 548.550781 183.078125 C 549.765625 182.019531 551.105469 180.917969 552.804688 179.96875 L 553.601562 181.28125 C 552.082031 182.304688 550.820312 183.230469 549.605469 184.289062 C 547.46875 185.992188 545.78125 188.113281 544.320312 190.4375 Z M 565.316406 175.007812 L 564.644531 173.648438 C 567.238281 172.355469 570.121094 170.660156 572.851562 168.582031 C 573.730469 167.800781 574.605469 167.023438 575.484375 166.242188 L 576.617188 167.277344 C 575.789062 168.183594 574.785156 169.011719 573.90625 169.792969 C 570.917969 171.96875 567.859375 173.585938 565.316406 175.007812 Z M 583.789062 155.699219 L 582.417969 155.199219 C 582.765625 154.183594 583.109375 153.167969 583.40625 152.023438 C 584.164062 148.644531 584.363281 145.335938 583.792969 142.324219 L 585.300781 142.035156 C 585.921875 145.175781 585.695312 148.792969 584.855469 152.347656 C 584.429688 153.542969 584.085938 154.554688 583.789062 155.699219 Z M 576.765625 132.09375 C 573.777344 130.449219 570.542969 130.078125 567.851562 131.113281 L 567.308594 129.707031 C 570.386719 128.523438 574.230469 128.953125 577.445312 130.800781 Z M 576.765625 132.09375 " fill-opacity="1" fill-rule="nonzero"/></g></g></g></g><g clip-path="url(#6386faa1ee)"><g clip-path="url(#bd856b8343)"><g clip-path="url(#0298be71a8)"><g clip-path="url(#297388b45e)"><path fill="#ffffff" d="M 616.5 222.332031 C 613.984375 223.445312 611.195312 224.226562 608.414062 224.269531 C 602.035156 224.519531 596.078125 221.667969 593.003906 217.117188 C 589.375 211.898438 590.039062 204.441406 594.425781 200.550781 C 596.726562 198.488281 600.207031 197.589844 603.539062 198.21875 C 606.566406 198.816406 608.992188 200.53125 610.105469 203.039062 L 608.742188 203.710938 C 607.828125 201.710938 605.757812 200.15625 603.210938 199.667969 C 600.363281 199.144531 597.394531 199.847656 595.433594 201.632812 C 591.585938 205.023438 591.0625 211.691406 594.265625 216.191406 C 597.191406 220.355469 602.617188 222.972656 608.433594 222.789062 C 617.414062 222.421875 625.71875 215.695312 627.980469 207.039062 C 630.238281 198.378906 625.960938 188.414062 618.117188 184.082031 C 610.21875 179.625 599.46875 180.382812 586.078125 186.125 C 582.796875 187.535156 579.175781 189.222656 576.285156 191.65625 C 574.066406 193.539062 571.996094 195.804688 569.679688 199.34375 C 561.402344 211.496094 556.863281 226.46875 556.917969 241.148438 L 555.441406 241.128906 C 555.363281 226.019531 559.984375 210.867188 568.464844 198.488281 C 570.914062 194.902344 572.933594 192.507812 575.410156 190.523438 C 578.554688 187.992188 582.175781 186.304688 585.539062 184.714844 C 599.3125 178.828125 610.542969 178.179688 618.796875 182.792969 C 627.097656 187.535156 631.75 198.089844 629.300781 207.410156 C 627.730469 214.039062 622.632812 219.53125 616.5 222.332031 Z M 545.871094 260.242188 L 545.199219 258.886719 C 532.332031 265.601562 517.765625 269.441406 503.242188 270.328125 C 496.046875 270.746094 486.945312 270.429688 480.546875 264.511719 C 475.105469 259.550781 472.347656 252.382812 469.558594 245.519531 C 468.570312 242.960938 467.585938 240.398438 466.34375 237.9375 C 461.859375 228.199219 454.992188 219.527344 446.640625 212.746094 C 439.777344 207.152344 432.808594 203.957031 425.9375 202.929688 C 417.664062 201.703125 409.390625 204.296875 404.371094 209.609375 C 400.257812 213.839844 398.292969 219.445312 396.765625 225.03125 C 395.34375 230.136719 394.246094 235.699219 396.425781 240.59375 C 398.503906 245.234375 403.53125 248.734375 409.292969 249.164062 C 414.054688 249.683594 419.378906 248.222656 424.546875 245.207031 C 427.296875 243.558594 429.179688 241.953125 430.609375 239.933594 C 433.835938 235.308594 433.394531 228.425781 429.460938 225.089844 C 427.421875 223.226562 424.214844 222.550781 421.25 223.25 C 418.535156 223.855469 416.394531 225.558594 415.5 227.816406 L 416.867188 228.316406 C 417.609375 226.417969 419.335938 225.164062 421.613281 224.582031 C 424.195312 224.027344 426.738281 224.519531 428.503906 226.042969 C 431.855469 229.015625 432.339844 234.859375 429.476562 238.898438 C 428.253906 240.691406 426.449219 242.121094 423.953125 243.667969 C 420.613281 245.691406 415.324219 248.019531 409.648438 247.414062 C 404.449219 246.914062 399.746094 243.871094 397.992188 239.699219 C 396.011719 235.316406 397.078125 230.054688 398.421875 225.128906 C 399.921875 219.847656 401.804688 214.417969 405.710938 210.417969 C 410.445312 205.507812 418.207031 203.109375 425.996094 204.226562 C 432.5625 205.226562 439.226562 208.394531 445.988281 213.730469 C 454.113281 220.304688 460.804688 228.898438 465.191406 238.382812 C 466.253906 240.765625 467.289062 243.453125 468.355469 245.835938 C 471.191406 252.828125 474.050781 260.253906 479.71875 265.421875 C 486.570312 271.75 495.976562 272.097656 503.429688 271.582031 C 516.398438 270.851562 529.292969 267.652344 541.097656 262.375 C 542.558594 261.960938 544.304688 261.140625 545.871094 260.242188 Z M 438.296875 137.910156 L 437.007812 137.230469 C 435.960938 139.101562 434.511719 140.6875 432.785156 141.941406 L 433.660156 143.074219 C 435.59375 141.59375 437.171875 139.957031 438.296875 137.910156 Z M 522.554688 241.730469 C 518.703125 240.128906 514.957031 238.042969 511.335938 235.90625 L 510.527344 237.246094 C 514.195312 239.511719 518.070312 241.546875 521.972656 243.277344 Z M 501.210938 228.339844 C 497.960938 225.625 495.042969 222.632812 492.203125 219.460938 L 491.117188 220.464844 C 493.957031 223.636719 497.050781 226.707031 500.304688 229.425781 Z M 484.535156 209.476562 C 482.285156 205.933594 480.117188 202.210938 478.253906 198.519531 L 476.84375 199.0625 C 478.757812 202.882812 480.847656 206.78125 483.222656 210.277344 Z M 470.039062 174.492188 L 468.53125 174.777344 C 469.414062 178.992188 470.558594 183.109375 471.957031 187.128906 L 473.367188 186.585938 C 472.019531 182.695312 470.875 178.578125 470.039062 174.492188 Z M 467.460938 155.933594 C 467.183594 153.6875 467.035156 151.394531 466.761719 149.148438 L 465.332031 149.257812 C 465.605469 151.503906 465.753906 153.796875 465.980469 155.914062 C 466.15625 157.90625 466.335938 159.894531 466.511719 161.886719 L 467.941406 161.777344 C 467.941406 159.863281 467.636719 157.925781 467.460938 155.933594 Z M 461.480469 126.632812 C 461.1875 125.867188 460.761719 125.148438 460.339844 124.429688 L 458.976562 125.101562 C 459.402344 125.820312 459.695312 126.585938 459.992188 127.355469 C 461.253906 130.25 462.355469 133.5 463.253906 136.976562 L 464.714844 136.5625 C 463.894531 132.90625 462.742188 129.53125 461.480469 126.632812 Z M 421.304688 145.769531 C 418.21875 145.78125 415.273438 145.007812 412.769531 143.472656 C 411.832031 142.949219 410.972656 142.25 410.066406 141.425781 L 409.03125 142.558594 C 409.9375 143.386719 410.972656 144.164062 411.960938 144.8125 C 414.640625 146.425781 417.894531 147.230469 421.160156 147.296875 Z M 452.394531 114.113281 C 449.21875 111.21875 445.34375 109.179688 441.105469 107.726562 L 440.601562 109.097656 C 444.664062 110.472656 448.359375 112.429688 451.4375 115.066406 Z M 406.976562 119.246094 L 405.765625 118.386719 L 405.683594 118.566406 C 403.542969 122.183594 402.617188 126.65625 403.296875 131.097656 L 404.804688 130.808594 C 404.09375 126.671875 404.867188 122.554688 406.976562 119.246094 Z M 428.167969 106.238281 C 423.703125 106.488281 419.453125 107.683594 415.675781 109.722656 L 416.34375 111.082031 C 420.042969 109.21875 424.039062 108.121094 428.328125 107.792969 Z M 541.152344 247.214844 C 538.960938 246.882812 536.722656 246.421875 534.613281 245.910156 L 534.289062 247.359375 C 536.398438 247.867188 538.636719 248.328125 541.003906 248.742188 Z M 525.953125 303.332031 L 524.742188 302.476562 C 521.769531 307 519.078125 309.945312 515.960938 312.175781 L 516.761719 313.484375 C 520.132812 311.15625 522.90625 308.03125 525.953125 303.332031 Z M 503.746094 315.996094 C 499.535156 316.144531 495.058594 315.222656 491.027344 313.539062 L 490.394531 314.960938 C 494.652344 316.847656 499.386719 317.671875 503.773438 317.601562 Z M 459.125 324.347656 L 457.914062 323.492188 C 456.976562 324.882812 455.507812 326.035156 453.710938 326.726562 C 451.453125 327.742188 448.949219 328.117188 446.710938 327.65625 L 446.386719 329.105469 C 448.929688 329.59375 451.867188 329.199219 454.382812 328.085938 C 456.253906 327.214844 457.933594 325.835938 459.125 324.347656 Z M 535.648438 287.988281 C 537.285156 285.742188 539.328125 283.78125 541.417969 281.945312 L 540.414062 280.863281 C 538.195312 282.746094 536.203125 284.835938 534.4375 287.132812 C 533.578125 288.34375 532.59375 289.605469 531.578125 291.171875 L 532.789062 292.027344 C 533.933594 290.414062 534.742188 289.074219 535.648438 287.988281 Z M 554.476562 272.660156 C 553.707031 272.953125 552.808594 273.300781 552.039062 273.597656 L 552.582031 275.003906 C 553.351562 274.707031 554.121094 274.414062 555.019531 274.066406 Z M 480.082031 306.140625 C 479.453125 305.648438 478.949219 305.105469 478.316406 304.613281 C 475.597656 302.132812 472.699219 299.574219 469.5625 297.546875 L 468.753906 298.886719 C 471.839844 300.789062 474.609375 303.394531 477.28125 305.75 C 477.914062 306.242188 478.417969 306.78125 479.046875 307.273438 Z M 448.539062 315.195312 C 448.359375 315.117188 448.261719 314.859375 448.210938 314.730469 C 447.820312 313.707031 448.835938 312.140625 450.066406 311.519531 L 450.195312 311.46875 C 451.992188 310.777344 454.226562 311.242188 456.070312 312.589844 L 456.929688 311.375 C 454.632812 309.613281 451.960938 309.171875 449.652344 310.0625 L 449.527344 310.109375 C 447.652344 310.980469 446.113281 313.480469 446.980469 315.351562 C 447.128906 315.738281 447.453125 316.199219 447.859375 316.484375 Z M 436.972656 319.941406 C 436.871094 319.683594 436.773438 319.429688 436.496094 319.09375 C 435.433594 316.710938 435.011719 314.082031 435.121094 311.6875 C 435.1875 310.335938 435.515625 308.890625 436.066406 307.648438 L 434.695312 307.144531 C 434.242188 308.644531 433.789062 310.140625 433.769531 311.617188 C 433.5 314.367188 434.023438 317.253906 435.316406 319.84375 C 435.414062 320.097656 435.5625 320.484375 435.789062 320.6875 Z M 456.765625 293.359375 C 453.453125 293.164062 450.386719 293.609375 447.519531 294.570312 C 446.109375 295.113281 444.746094 295.78125 443.5625 296.53125 L 444.363281 297.839844 C 445.546875 297.089844 446.777344 296.46875 448.109375 296.105469 C 450.851562 295.195312 453.789062 294.800781 456.796875 294.964844 Z M 456.765625 293.359375 " fill-opacity="1" fill-rule="nonzero"/></g></g></g></g><g clip-path="url(#b9f7846f08)"><g clip-path="url(#83d59cb628)"><g clip-path="url(#0a0d384b7a)"><g clip-path="url(#cdf95e091b)"><path fill="#f2b336" d="M 728.992188 474.46875 C 726.929688 475.996094 723.683594 476.363281 722.253906 478.382812 C 723.949219 483.167969 728.523438 486.257812 733.109375 488.609375 C 736.222656 490.203125 739.722656 491.648438 741.339844 494.703125 C 742.632812 497.292969 742.128906 500.574219 740.363281 502.867188 C 738.597656 505.164062 735.925781 506.632812 733.035156 507.160156 C 732.214844 507.328125 731.347656 507.367188 730.429688 507.277344 C 729.644531 507.140625 728.980469 506.953125 728.273438 506.640625 C 725.5625 505.332031 723.765625 502.199219 723.9375 499.195312 C 724.085938 497.667969 724.585938 496.300781 724.863281 494.722656 C 725.230469 492.230469 724.804688 489.601562 723.613281 487.265625 C 722.550781 484.882812 720.894531 482.875 719.15625 481.046875 C 718.929688 480.839844 718.703125 480.632812 718.449219 480.730469 C 718.320312 480.78125 718.191406 480.828125 718.113281 481.007812 C 714.523438 484.300781 709.761719 485.691406 704.996094 485.171875 C 706.152344 484.726562 707.335938 483.980469 708.164062 483.070312 C 708.578125 482.617188 709.070312 481.988281 709.4375 481.40625 C 710.660156 479.613281 711.605469 477.484375 712.730469 475.433594 C 713.570312 473.789062 713.292969 471.542969 712.140625 470.078125 C 711.914062 469.871094 711.816406 469.613281 711.507812 469.585938 C 711.203125 469.554688 710.949219 469.652344 710.691406 469.753906 C 709.714844 470.277344 708.660156 470.976562 707.484375 470.988281 C 705.878906 471.015625 704.546875 469.472656 704.695312 467.945312 C 704.734375 466.902344 705.4375 466.042969 705.652344 465.078125 C 705.871094 464.113281 705.632812 462.734375 704.667969 462.515625 C 703.878906 462.378906 703 463.160156 702.085938 463.070312 C 701.34375 463.0625 700.792969 462.390625 700.625 461.574219 C 700.378906 460.933594 700.519531 460.144531 700.398438 459.457031 C 700.390625 458.285156 700.125 457.210938 699.679688 456.058594 C 699.386719 455.289062 698.765625 454.058594 697.996094 454.355469 C 697.5 454.988281 696.683594 455.15625 696.023438 454.96875 C 695.363281 454.78125 694.730469 454.289062 694.484375 453.648438 C 694.238281 453.007812 694.425781 452.347656 694.484375 451.738281 C 694.542969 451.128906 694.25 450.359375 693.714844 450.125 C 693.136719 449.757812 692.414062 450.183594 691.773438 450.429688 C 690.667969 451.003906 689.386719 451.496094 688.195312 451.074219 C 687 450.648438 686.253906 449.46875 685.988281 448.394531 C 685.425781 446.554688 685.25 444.5625 685.121094 442.703125 C 684.699219 438.160156 683.359375 433.53125 680.421875 430.105469 C 679.867188 429.4375 679.492188 428.847656 679.070312 428.128906 C 679.019531 428 678.972656 427.871094 678.972656 427.871094 C 677.660156 428.671875 676.300781 429.339844 674.9375 430.011719 C 673.273438 430.652344 671.445312 431.648438 669.671875 430.863281 C 668.203125 430.105469 667.433594 428.492188 668.195312 427.023438 C 670.277344 422.105469 676.035156 418.714844 680.355469 416.167969 C 681.332031 415.644531 682.433594 415.074219 683.511719 414.808594 C 684.632812 414.667969 685.855469 414.785156 686.765625 415.613281 C 687.671875 416.441406 687.90625 417.820312 687.484375 419.011719 C 687.1875 420.152344 686.457031 421.316406 685.628906 422.222656 C 684.800781 423.128906 683.972656 424.035156 683.09375 424.816406 C 685.214844 426.5 686.910156 429.375 688.773438 431.15625 C 690.054688 432.574219 691.621094 433.585938 693.316406 434.550781 C 693.542969 434.757812 693.847656 434.785156 694.203125 434.945312 C 696.332031 435.886719 698.699219 436.300781 700.621094 437.472656 C 701.734375 438.070312 702.742188 439.152344 703.054688 440.355469 C 703.371094 441.558594 702.96875 443.183594 701.734375 443.804688 C 701.351562 443.953125 700.835938 444.148438 700.453125 444.296875 C 700.117188 444.574219 699.703125 445.027344 699.851562 445.410156 C 699.949219 445.667969 700 445.792969 700.226562 446 C 701.179688 446.957031 702.886719 447.183594 703.84375 448.136719 C 704.394531 448.804688 704.613281 449.75 703.941406 450.304688 C 703.734375 450.53125 703.351562 450.679688 703.144531 450.90625 C 702.984375 451.257812 703.183594 451.773438 703.457031 452.105469 C 705.066406 453.988281 707.707031 454.734375 709.648438 456.335938 C 710.101562 456.75 710.703125 457.546875 710.289062 458.003906 C 710.082031 458.230469 709.953125 458.277344 709.699219 458.375 C 709.234375 458.703125 709.046875 459.363281 709.292969 460.003906 C 709.964844 461.359375 713.136719 460.433594 714.359375 460.550781 C 715.535156 460.539062 716.804688 460.785156 717.585938 461.660156 C 718.589844 462.746094 718.414062 464.578125 717.277344 465.453125 C 716.480469 466.054688 715.199219 466.546875 715.285156 467.542969 C 715.257812 467.847656 715.40625 468.234375 715.632812 468.441406 C 717.40625 471.136719 720.777344 472.632812 723.941406 472.441406 C 727.109375 472.253906 730.242188 470.457031 732.621094 468.222656 C 732.601562 469.699219 731.839844 471.167969 730.855469 472.429688 C 730.28125 473.238281 729.660156 473.917969 728.992188 474.46875 Z M 557.714844 250.101562 C 556.917969 248.789062 555.289062 248.386719 553.878906 248.929688 C 553.753906 248.980469 553.625 249.027344 553.625 249.027344 C 552.183594 249.878906 551.699219 251.679688 552.546875 253.117188 C 554.992188 257.175781 557.4375 261.230469 560.136719 265.1875 L 565.078125 261.964844 C 562.554688 258.085938 560.109375 254.027344 557.714844 250.101562 Z M 557.714844 250.101562 " fill-opacity="1" fill-rule="nonzero"/></g></g></g></g><path fill="#8c52ff" d="M 289.492188 387.4375 L 257.882812 372.09375 C 252.089844 369.28125 249.648438 362.238281 252.460938 356.441406 C 255.273438 350.648438 262.316406 348.207031 268.113281 351.019531 L 299.71875 366.363281 C 305.515625 369.175781 307.953125 376.21875 305.140625 382.015625 C 302.328125 387.8125 295.285156 390.25 289.492188 387.4375 Z M 423.851562 387.324219 L 288.121094 321.433594 C 270.351562 312.808594 248.753906 320.289062 240.128906 338.0625 L 89.796875 647.800781 C 81.171875 665.574219 88.652344 687.171875 106.425781 695.796875 L 242.15625 761.6875 C 259.925781 770.3125 281.523438 762.828125 290.144531 745.058594 L 440.476562 435.320312 C 449.101562 417.546875 441.621094 395.949219 423.851562 387.324219 " fill-opacity="1" fill-rule="nonzero"/><path fill="#cb6ce6" d="M 289.492188 387.4375 L 257.882812 372.09375 C 252.089844 369.28125 249.648438 362.238281 252.460938 356.441406 C 255.273438 350.648438 262.316406 348.207031 268.113281 351.019531 L 299.71875 366.363281 C 305.515625 369.175781 307.953125 376.21875 305.140625 382.015625 C 302.328125 387.8125 295.285156 390.25 289.492188 387.4375 Z M 418.984375 397.351562 L 283.253906 331.464844 C 265.484375 322.839844 244.261719 329.539062 236.101562 346.359375 L 93.828125 639.5 C 85.664062 656.320312 93.523438 677.140625 111.292969 685.765625 L 247.023438 751.65625 C 264.792969 760.28125 286.011719 753.578125 294.175781 736.757812 L 436.449219 443.617188 C 444.613281 426.796875 436.753906 405.980469 418.984375 397.351562 " fill-opacity="1" fill-rule="nonzero"/><g clip-path="url(#ea7651937c)"><g clip-path="url(#c184c05698)"><path fill="#004aad" d="M 166.933594 551.796875 C 159.523438 547.882812 167.40625 544.554688 167.40625 544.554688 C 167.40625 544.554688 185.550781 536.425781 193.445312 548.410156 C 201.339844 560.390625 174.347656 555.714844 166.933594 551.796875 Z M 156.945312 516.902344 C 156.945312 516.902344 148.398438 524.515625 143.339844 523.96875 C 138.277344 523.417969 148.902344 506.480469 160.496094 503.84375 C 172.09375 501.203125 156.945312 516.902344 156.945312 516.902344 Z M 229.535156 554.257812 C 222.96875 550.890625 214.089844 544.925781 216.285156 538.097656 C 218.761719 530.390625 235.863281 534.058594 244.945312 536.613281 C 248.207031 537.53125 252.046875 536.140625 253.851562 533.394531 L 274.621094 501.796875 L 229.632812 487.171875 C 226.289062 486.085938 222.230469 487.265625 219.96875 489.957031 C 213.617188 497.515625 200.566406 511.222656 191.621094 508.214844 C 181.6875 504.871094 196.238281 489.386719 202.023438 483.722656 C 202.863281 482.898438 202.277344 481.730469 201.050781 481.789062 L 159.988281 483.746094 C 159.40625 483.773438 158.863281 484.089844 158.609375 484.554688 C 156.105469 489.125 142.609375 512.566406 132.214844 506.777344 C 123.808594 502.089844 130.222656 493.074219 134.277344 488.566406 C 134.78125 488.007812 134.082031 487.355469 133.378906 487.730469 C 120.445312 494.640625 76.476562 519.289062 72.480469 537.238281 C 67.785156 558.300781 78.332031 576.441406 78.332031 576.441406 C 96.320312 606.242188 152.179688 603.546875 173.25 601.371094 C 176.203125 601.0625 177.636719 597.941406 175.523438 596.421875 C 168.101562 591.082031 156.890625 581.46875 162.09375 575.21875 C 167.890625 568.25 183.316406 581.40625 190.101562 587.820312 C 192.234375 589.835938 195.945312 590.109375 198.957031 588.5 C 210.796875 582.175781 223.613281 570.042969 230.648438 562.875 C 233.460938 560.007812 232.933594 556.003906 229.535156 554.257812 " fill-opacity="1" fill-rule="nonzero"/></g></g><g clip-path="url(#a2ba39acf9)"><g clip-path="url(#629c7e8345)"><path fill="#004aad" d="M 243.890625 725.667969 C 243.523438 723.351562 245.207031 720.550781 247.726562 718.988281 C 251.707031 716.523438 258.496094 712.976562 261.414062 715.347656 C 265.140625 718.371094 245.074219 733.109375 243.890625 725.667969 Z M 210.148438 748.484375 C 205.496094 744.808594 199.261719 729.542969 209.992188 727.34375 C 220.722656 725.140625 219.96875 744.324219 219.96875 744.324219 C 219.96875 744.324219 214.804688 752.164062 210.148438 748.484375 Z M 235.835938 683.179688 C 241.292969 678.074219 240.75 699.886719 240.75 699.886719 C 231.617188 715.890625 230.378906 688.285156 235.835938 683.179688 Z M 277.515625 647.082031 C 277.515625 647.082031 212.109375 669.167969 187.253906 692.808594 C 162.398438 716.453125 156.300781 754.550781 183.089844 763.355469 C 209.878906 772.15625 216.359375 767.722656 216.359375 767.722656 C 216.359375 767.722656 236.664062 778.808594 271.757812 766.402344 C 306.851562 753.992188 277.515625 647.082031 277.515625 647.082031 " fill-opacity="1" fill-rule="nonzero"/></g></g><g clip-path="url(#4088fd0e2b)"><g clip-path="url(#ff979844d9)"><path fill="#004aad" d="M 404.542969 644.066406 C 404.542969 644.066406 368.613281 671.09375 340.015625 664.605469 C 311.421875 658.113281 289.554688 634.582031 289.554688 634.582031 L 296.609375 605.609375 C 296.609375 605.609375 337.683594 628.714844 336.335938 601.792969 C 334.988281 574.875 296.855469 584.859375 296.855469 584.859375 C 296.855469 584.859375 286.796875 562 296.882812 546.371094 C 296.882812 546.371094 324.492188 571.238281 332.050781 555.460938 C 339.609375 539.6875 302.3125 522.367188 302.3125 522.367188 C 302.3125 522.367188 310.074219 487.59375 318.277344 480.597656 C 326.480469 473.605469 348.1875 484.460938 348.78125 491.585938 C 349.375 498.710938 348.789062 546.285156 357.222656 546.765625 C 365.65625 547.246094 367.707031 495.703125 367.707031 495.703125 C 367.707031 495.703125 382.015625 493.988281 391.382812 502.117188 C 391.382812 502.117188 372.152344 554.707031 381.710938 564.367188 C 391.269531 574.027344 408.46875 513.125 408.46875 513.125 C 408.46875 513.125 419.367188 516.371094 429.113281 527.5625 C 429.113281 527.5625 446.34375 589.984375 404.542969 644.066406 " fill-opacity="1" fill-rule="nonzero"/></g></g></svg>