<svg xmlns="http://www.w3.org/2000/svg" xmlns:xlink="http://www.w3.org/1999/xlink" width="500" zoomAndPan="magnify" viewBox="0 0 375 374.999991" height="500" preserveAspectRatio="xMidYMid meet" version="1.0"><defs><clipPath id="a7cc73f332"><path d="M 19 69 L 357.148438 69 L 357.148438 305.953125 L 19 305.953125 Z M 19 69 " clip-rule="nonzero"/></clipPath></defs><g clip-path="url(#a7cc73f332)"><path fill="#ffffff" d="M 36.699219 69.539062 C 36.144531 69.53125 35.585938 69.554688 35.03125 69.601562 C 34.476562 69.648438 33.925781 69.722656 33.375 69.824219 C 32.828125 69.925781 32.285156 70.054688 31.75 70.210938 C 31.214844 70.363281 30.691406 70.546875 30.171875 70.753906 C 29.65625 70.960938 29.148438 71.195312 28.65625 71.453125 C 28.160156 71.710938 27.679688 71.992188 27.214844 72.296875 C 26.75 72.601562 26.300781 72.929688 25.867188 73.277344 C 25.433594 73.628906 25.015625 74 24.621094 74.390625 C 24.222656 74.78125 23.847656 75.191406 23.488281 75.617188 C 23.132812 76.046875 22.800781 76.492188 22.488281 76.953125 C 22.175781 77.414062 21.886719 77.890625 21.621094 78.378906 C 21.355469 78.867188 21.117188 79.371094 20.902344 79.882812 C 20.6875 80.398438 20.496094 80.921875 20.335938 81.453125 C 20.171875 81.984375 20.035156 82.523438 19.925781 83.070312 C 19.816406 83.617188 19.734375 84.164062 19.675781 84.71875 C 19.621094 85.273438 19.59375 85.828125 19.59375 86.386719 C 19.59375 86.941406 19.621094 87.496094 19.675781 88.050781 C 19.734375 88.605469 19.816406 89.15625 19.925781 89.703125 C 20.035156 90.246094 20.171875 90.785156 20.335938 91.320312 C 20.496094 91.851562 20.6875 92.375 20.902344 92.886719 C 21.117188 93.402344 21.355469 93.902344 21.621094 94.390625 C 21.886719 94.882812 22.175781 95.359375 22.488281 95.820312 C 22.800781 96.28125 23.132812 96.726562 23.488281 97.152344 C 23.847656 97.582031 24.222656 97.992188 24.621094 98.382812 C 25.015625 98.773438 25.433594 99.144531 25.867188 99.492188 C 26.300781 99.84375 26.75 100.167969 27.214844 100.476562 C 27.679688 100.78125 28.160156 101.0625 28.65625 101.320312 C 29.148438 101.578125 29.65625 101.808594 30.171875 102.015625 C 30.691406 102.226562 31.214844 102.40625 31.75 102.5625 C 32.285156 102.71875 32.828125 102.847656 33.375 102.949219 C 33.925781 103.050781 34.476562 103.125 35.03125 103.171875 C 35.585938 103.21875 36.144531 103.238281 36.699219 103.230469 L 340.28125 103.230469 C 340.839844 103.238281 341.394531 103.21875 341.953125 103.171875 C 342.507812 103.125 343.058594 103.050781 343.605469 102.949219 C 344.15625 102.847656 344.695312 102.71875 345.230469 102.5625 C 345.765625 102.40625 346.292969 102.226562 346.808594 102.015625 C 347.328125 101.808594 347.832031 101.578125 348.328125 101.320312 C 348.820312 101.0625 349.300781 100.78125 349.769531 100.476562 C 350.234375 100.167969 350.683594 99.84375 351.117188 99.492188 C 351.550781 99.144531 351.964844 98.773438 352.363281 98.382812 C 352.761719 97.992188 353.136719 97.582031 353.492188 97.152344 C 353.847656 96.726562 354.183594 96.28125 354.496094 95.820312 C 354.808594 95.359375 355.097656 94.882812 355.359375 94.390625 C 355.625 93.902344 355.867188 93.402344 356.082031 92.886719 C 356.296875 92.375 356.484375 91.851562 356.648438 91.320312 C 356.8125 90.785156 356.949219 90.246094 357.058594 89.703125 C 357.167969 89.15625 357.25 88.605469 357.304688 88.050781 C 357.359375 87.496094 357.386719 86.941406 357.386719 86.386719 C 357.386719 85.828125 357.359375 85.273438 357.304688 84.71875 C 357.25 84.164062 357.167969 83.617188 357.058594 83.070312 C 356.949219 82.523438 356.8125 81.984375 356.648438 81.453125 C 356.484375 80.921875 356.296875 80.398438 356.082031 79.882812 C 355.867188 79.371094 355.625 78.867188 355.359375 78.378906 C 355.097656 77.890625 354.808594 77.414062 354.496094 76.953125 C 354.183594 76.492188 353.847656 76.046875 353.492188 75.617188 C 353.136719 75.191406 352.761719 74.78125 352.363281 74.390625 C 351.964844 74 351.550781 73.628906 351.117188 73.277344 C 350.683594 72.929688 350.234375 72.601562 349.769531 72.296875 C 349.300781 71.992188 348.820312 71.710938 348.328125 71.453125 C 347.832031 71.195312 347.328125 70.960938 346.808594 70.753906 C 346.292969 70.546875 345.765625 70.363281 345.230469 70.210938 C 344.695312 70.054688 344.15625 69.925781 343.605469 69.824219 C 343.058594 69.722656 342.507812 69.648438 341.953125 69.601562 C 341.394531 69.554688 340.839844 69.53125 340.28125 69.539062 Z M 36.699219 170.609375 C 36.144531 170.601562 35.585938 170.621094 35.03125 170.667969 C 34.476562 170.714844 33.925781 170.789062 33.375 170.890625 C 32.828125 170.992188 32.285156 171.121094 31.75 171.277344 C 31.214844 171.433594 30.691406 171.613281 30.171875 171.824219 C 29.65625 172.03125 29.148438 172.261719 28.65625 172.519531 C 28.160156 172.777344 27.679688 173.058594 27.214844 173.363281 C 26.75 173.667969 26.300781 173.996094 25.867188 174.347656 C 25.433594 174.695312 25.015625 175.066406 24.621094 175.457031 C 24.222656 175.847656 23.847656 176.257812 23.488281 176.6875 C 23.132812 177.113281 22.800781 177.558594 22.488281 178.019531 C 22.175781 178.480469 21.886719 178.957031 21.621094 179.445312 C 21.355469 179.9375 21.117188 180.4375 20.902344 180.953125 C 20.6875 181.464844 20.496094 181.988281 20.335938 182.519531 C 20.171875 183.054688 20.035156 183.59375 19.925781 184.136719 C 19.816406 184.683594 19.734375 185.234375 19.675781 185.789062 C 19.621094 186.339844 19.59375 186.898438 19.59375 187.453125 C 19.59375 188.011719 19.621094 188.566406 19.675781 189.121094 C 19.734375 189.671875 19.816406 190.222656 19.925781 190.769531 C 20.035156 191.316406 20.171875 191.855469 20.335938 192.386719 C 20.496094 192.917969 20.6875 193.441406 20.902344 193.957031 C 21.117188 194.46875 21.355469 194.96875 21.621094 195.460938 C 21.886719 195.949219 22.175781 196.425781 22.488281 196.886719 C 22.800781 197.347656 23.132812 197.792969 23.488281 198.222656 C 23.847656 198.648438 24.222656 199.058594 24.621094 199.449219 C 25.015625 199.839844 25.433594 200.210938 25.867188 200.5625 C 26.300781 200.910156 26.75 201.238281 27.214844 201.542969 C 27.679688 201.847656 28.160156 202.128906 28.65625 202.386719 C 29.148438 202.644531 29.65625 202.878906 30.171875 203.085938 C 30.691406 203.292969 31.214844 203.472656 31.75 203.628906 C 32.285156 203.785156 32.828125 203.914062 33.375 204.015625 C 33.925781 204.117188 34.476562 204.191406 35.03125 204.238281 C 35.585938 204.285156 36.144531 204.304688 36.699219 204.296875 L 340.28125 204.296875 C 340.839844 204.304688 341.394531 204.285156 341.953125 204.238281 C 342.507812 204.191406 343.058594 204.117188 343.605469 204.015625 C 344.15625 203.914062 344.695312 203.785156 345.230469 203.628906 C 345.765625 203.472656 346.292969 203.292969 346.808594 203.085938 C 347.328125 202.878906 347.832031 202.644531 348.328125 202.386719 C 348.820312 202.128906 349.300781 201.847656 349.765625 201.542969 C 350.234375 201.238281 350.683594 200.910156 351.117188 200.5625 C 351.550781 200.210938 351.964844 199.839844 352.363281 199.449219 C 352.761719 199.058594 353.136719 198.648438 353.492188 198.222656 C 353.847656 197.792969 354.183594 197.347656 354.496094 196.886719 C 354.808594 196.425781 355.097656 195.949219 355.359375 195.460938 C 355.625 194.96875 355.867188 194.46875 356.082031 193.957031 C 356.296875 193.441406 356.484375 192.917969 356.648438 192.386719 C 356.8125 191.855469 356.949219 191.316406 357.058594 190.769531 C 357.167969 190.222656 357.25 189.671875 357.304688 189.121094 C 357.359375 188.566406 357.386719 188.011719 357.386719 187.453125 C 357.386719 186.898438 357.359375 186.339844 357.304688 185.789062 C 357.25 185.234375 357.167969 184.683594 357.058594 184.136719 C 356.949219 183.59375 356.8125 183.054688 356.648438 182.519531 C 356.484375 181.988281 356.296875 181.464844 356.082031 180.953125 C 355.867188 180.4375 355.625 179.9375 355.359375 179.445312 C 355.097656 178.957031 354.808594 178.480469 354.496094 178.019531 C 354.183594 177.558594 353.847656 177.113281 353.492188 176.6875 C 353.136719 176.257812 352.761719 175.847656 352.363281 175.457031 C 351.964844 175.066406 351.550781 174.695312 351.117188 174.347656 C 350.683594 173.996094 350.234375 173.667969 349.765625 173.363281 C 349.300781 173.058594 348.820312 172.777344 348.328125 172.519531 C 347.832031 172.261719 347.328125 172.03125 346.808594 171.824219 C 346.292969 171.613281 345.765625 171.433594 345.230469 171.277344 C 344.695312 171.121094 344.15625 170.992188 343.605469 170.890625 C 343.058594 170.789062 342.507812 170.714844 341.953125 170.667969 C 341.394531 170.621094 340.839844 170.601562 340.28125 170.609375 Z M 36.699219 271.675781 C 36.144531 271.667969 35.585938 271.6875 35.03125 271.734375 C 34.476562 271.785156 33.925781 271.859375 33.375 271.960938 C 32.828125 272.0625 32.285156 272.191406 31.75 272.34375 C 31.214844 272.5 30.691406 272.683594 30.171875 272.890625 C 29.65625 273.097656 29.148438 273.332031 28.65625 273.589844 C 28.160156 273.847656 27.679688 274.128906 27.214844 274.433594 C 26.75 274.738281 26.300781 275.066406 25.867188 275.414062 C 25.433594 275.765625 25.015625 276.136719 24.621094 276.527344 C 24.222656 276.917969 23.847656 277.324219 23.488281 277.753906 C 23.132812 278.183594 22.800781 278.628906 22.488281 279.089844 C 22.175781 279.550781 21.886719 280.023438 21.621094 280.515625 C 21.355469 281.003906 21.117188 281.507812 20.902344 282.019531 C 20.6875 282.535156 20.496094 283.054688 20.332031 283.589844 C 20.171875 284.121094 20.035156 284.660156 19.925781 285.207031 C 19.816406 285.75 19.730469 286.300781 19.675781 286.855469 C 19.621094 287.410156 19.59375 287.964844 19.59375 288.523438 C 19.59375 289.078125 19.621094 289.632812 19.675781 290.1875 C 19.730469 290.742188 19.816406 291.292969 19.925781 291.835938 C 20.035156 292.382812 20.171875 292.921875 20.332031 293.453125 C 20.496094 293.988281 20.6875 294.511719 20.902344 295.023438 C 21.117188 295.539062 21.355469 296.039062 21.621094 296.527344 C 21.886719 297.019531 22.175781 297.492188 22.488281 297.957031 C 22.800781 298.417969 23.132812 298.859375 23.488281 299.289062 C 23.847656 299.71875 24.222656 300.128906 24.621094 300.519531 C 25.015625 300.910156 25.433594 301.277344 25.867188 301.628906 C 26.300781 301.980469 26.75 302.304688 27.214844 302.609375 C 27.679688 302.917969 28.160156 303.199219 28.65625 303.457031 C 29.148438 303.714844 29.65625 303.945312 30.171875 304.152344 C 30.691406 304.359375 31.214844 304.542969 31.75 304.699219 C 32.285156 304.851562 32.828125 304.980469 33.375 305.082031 C 33.925781 305.1875 34.476562 305.261719 35.03125 305.308594 C 35.585938 305.355469 36.144531 305.375 36.699219 305.367188 L 340.28125 305.367188 C 340.839844 305.375 341.394531 305.355469 341.953125 305.308594 C 342.507812 305.261719 343.058594 305.1875 343.605469 305.082031 C 344.15625 304.980469 344.695312 304.851562 345.230469 304.699219 C 345.765625 304.542969 346.292969 304.359375 346.808594 304.152344 C 347.328125 303.945312 347.832031 303.714844 348.328125 303.457031 C 348.820312 303.199219 349.300781 302.917969 349.769531 302.609375 C 350.234375 302.304688 350.683594 301.980469 351.117188 301.628906 C 351.550781 301.277344 351.964844 300.910156 352.363281 300.519531 C 352.761719 300.128906 353.136719 299.71875 353.492188 299.289062 C 353.847656 298.859375 354.183594 298.417969 354.496094 297.957031 C 354.808594 297.492188 355.097656 297.019531 355.363281 296.527344 C 355.625 296.039062 355.867188 295.539062 356.082031 295.023438 C 356.296875 294.511719 356.484375 293.988281 356.648438 293.453125 C 356.8125 292.921875 356.949219 292.382812 357.058594 291.835938 C 357.167969 291.292969 357.25 290.742188 357.304688 290.1875 C 357.359375 289.632812 357.386719 289.078125 357.386719 288.523438 C 357.386719 287.964844 357.359375 287.410156 357.304688 286.855469 C 357.25 286.300781 357.167969 285.75 357.058594 285.207031 C 356.949219 284.660156 356.8125 284.121094 356.648438 283.589844 C 356.484375 283.054688 356.296875 282.535156 356.082031 282.019531 C 355.867188 281.507812 355.625 281.003906 355.363281 280.515625 C 355.097656 280.023438 354.808594 279.550781 354.496094 279.089844 C 354.183594 278.628906 353.847656 278.183594 353.492188 277.753906 C 353.136719 277.324219 352.761719 276.917969 352.363281 276.527344 C 351.964844 276.136719 351.550781 275.765625 351.117188 275.414062 C 350.683594 275.066406 350.234375 274.738281 349.769531 274.433594 C 349.300781 274.128906 348.820312 273.847656 348.328125 273.589844 C 347.832031 273.332031 347.328125 273.097656 346.808594 272.890625 C 346.292969 272.683594 345.765625 272.5 345.230469 272.34375 C 344.695312 272.191406 344.15625 272.0625 343.605469 271.960938 C 343.058594 271.859375 342.507812 271.785156 341.953125 271.734375 C 341.394531 271.6875 340.839844 271.667969 340.28125 271.675781 Z M 36.699219 271.675781 " fill-opacity="1" fill-rule="nonzero"/></g></svg>